%TF.GenerationSoftware,KiCad,Pcbnew,(5.1.7)-1*%
%TF.CreationDate,2021-05-08T17:47:48+02:00*%
%TF.ProjectId,tankwaechter,74616e6b-7761-4656-9368-7465722e6b69,rev?*%
%TF.SameCoordinates,Original*%
%TF.FileFunction,Legend,Top*%
%TF.FilePolarity,Positive*%
%FSLAX46Y46*%
G04 Gerber Fmt 4.6, Leading zero omitted, Abs format (unit mm)*
G04 Created by KiCad (PCBNEW (5.1.7)-1) date 2021-05-08 17:47:48*
%MOMM*%
%LPD*%
G01*
G04 APERTURE LIST*
%ADD10C,0.300000*%
%ADD11C,0.010000*%
%ADD12C,0.120000*%
%ADD13C,0.150000*%
G04 APERTURE END LIST*
D10*
X103308571Y-157217142D02*
X103308571Y-156360000D01*
X104808571Y-156788571D02*
X103308571Y-156788571D01*
X104808571Y-155217142D02*
X104022857Y-155217142D01*
X103880000Y-155288571D01*
X103808571Y-155431428D01*
X103808571Y-155717142D01*
X103880000Y-155860000D01*
X104737142Y-155217142D02*
X104808571Y-155360000D01*
X104808571Y-155717142D01*
X104737142Y-155860000D01*
X104594285Y-155931428D01*
X104451428Y-155931428D01*
X104308571Y-155860000D01*
X104237142Y-155717142D01*
X104237142Y-155360000D01*
X104165714Y-155217142D01*
X103808571Y-154502857D02*
X104808571Y-154502857D01*
X103951428Y-154502857D02*
X103880000Y-154431428D01*
X103808571Y-154288571D01*
X103808571Y-154074285D01*
X103880000Y-153931428D01*
X104022857Y-153860000D01*
X104808571Y-153860000D01*
X104808571Y-153145714D02*
X103308571Y-153145714D01*
X104237142Y-153002857D02*
X104808571Y-152574285D01*
X103808571Y-152574285D02*
X104380000Y-153145714D01*
X103808571Y-152074285D02*
X104808571Y-151788571D01*
X104094285Y-151502857D01*
X104808571Y-151217142D01*
X103808571Y-150931428D01*
X104808571Y-149717142D02*
X104022857Y-149717142D01*
X103880000Y-149788571D01*
X103808571Y-149931428D01*
X103808571Y-150217142D01*
X103880000Y-150360000D01*
X104737142Y-149717142D02*
X104808571Y-149860000D01*
X104808571Y-150217142D01*
X104737142Y-150360000D01*
X104594285Y-150431428D01*
X104451428Y-150431428D01*
X104308571Y-150360000D01*
X104237142Y-150217142D01*
X104237142Y-149860000D01*
X104165714Y-149717142D01*
X104737142Y-148431428D02*
X104808571Y-148574285D01*
X104808571Y-148860000D01*
X104737142Y-149002857D01*
X104594285Y-149074285D01*
X104022857Y-149074285D01*
X103880000Y-149002857D01*
X103808571Y-148860000D01*
X103808571Y-148574285D01*
X103880000Y-148431428D01*
X104022857Y-148360000D01*
X104165714Y-148360000D01*
X104308571Y-149074285D01*
X104737142Y-147074285D02*
X104808571Y-147217142D01*
X104808571Y-147502857D01*
X104737142Y-147645714D01*
X104665714Y-147717142D01*
X104522857Y-147788571D01*
X104094285Y-147788571D01*
X103951428Y-147717142D01*
X103880000Y-147645714D01*
X103808571Y-147502857D01*
X103808571Y-147217142D01*
X103880000Y-147074285D01*
X104808571Y-146431428D02*
X103308571Y-146431428D01*
X104808571Y-145788571D02*
X104022857Y-145788571D01*
X103880000Y-145860000D01*
X103808571Y-146002857D01*
X103808571Y-146217142D01*
X103880000Y-146360000D01*
X103951428Y-146431428D01*
X103808571Y-145288571D02*
X103808571Y-144717142D01*
X103308571Y-145074285D02*
X104594285Y-145074285D01*
X104737142Y-145002857D01*
X104808571Y-144860000D01*
X104808571Y-144717142D01*
X104737142Y-143645714D02*
X104808571Y-143788571D01*
X104808571Y-144074285D01*
X104737142Y-144217142D01*
X104594285Y-144288571D01*
X104022857Y-144288571D01*
X103880000Y-144217142D01*
X103808571Y-144074285D01*
X103808571Y-143788571D01*
X103880000Y-143645714D01*
X104022857Y-143574285D01*
X104165714Y-143574285D01*
X104308571Y-144288571D01*
X104808571Y-142931428D02*
X103808571Y-142931428D01*
X104094285Y-142931428D02*
X103951428Y-142860000D01*
X103880000Y-142788571D01*
X103808571Y-142645714D01*
X103808571Y-142502857D01*
X106358571Y-152002857D02*
X107358571Y-151645714D01*
X106358571Y-151288571D01*
X105858571Y-150431428D02*
X105858571Y-150288571D01*
X105930000Y-150145714D01*
X106001428Y-150074285D01*
X106144285Y-150002857D01*
X106430000Y-149931428D01*
X106787142Y-149931428D01*
X107072857Y-150002857D01*
X107215714Y-150074285D01*
X107287142Y-150145714D01*
X107358571Y-150288571D01*
X107358571Y-150431428D01*
X107287142Y-150574285D01*
X107215714Y-150645714D01*
X107072857Y-150717142D01*
X106787142Y-150788571D01*
X106430000Y-150788571D01*
X106144285Y-150717142D01*
X106001428Y-150645714D01*
X105930000Y-150574285D01*
X105858571Y-150431428D01*
X107215714Y-149288571D02*
X107287142Y-149217142D01*
X107358571Y-149288571D01*
X107287142Y-149360000D01*
X107215714Y-149288571D01*
X107358571Y-149288571D01*
X106001428Y-148645714D02*
X105930000Y-148574285D01*
X105858571Y-148431428D01*
X105858571Y-148074285D01*
X105930000Y-147931428D01*
X106001428Y-147860000D01*
X106144285Y-147788571D01*
X106287142Y-147788571D01*
X106501428Y-147860000D01*
X107358571Y-148717142D01*
X107358571Y-147788571D01*
X109837142Y-153610000D02*
X109908571Y-153395714D01*
X109908571Y-153038571D01*
X109837142Y-152895714D01*
X109765714Y-152824285D01*
X109622857Y-152752857D01*
X109480000Y-152752857D01*
X109337142Y-152824285D01*
X109265714Y-152895714D01*
X109194285Y-153038571D01*
X109122857Y-153324285D01*
X109051428Y-153467142D01*
X108980000Y-153538571D01*
X108837142Y-153610000D01*
X108694285Y-153610000D01*
X108551428Y-153538571D01*
X108480000Y-153467142D01*
X108408571Y-153324285D01*
X108408571Y-152967142D01*
X108480000Y-152752857D01*
X109908571Y-152110000D02*
X108908571Y-152110000D01*
X108408571Y-152110000D02*
X108480000Y-152181428D01*
X108551428Y-152110000D01*
X108480000Y-152038571D01*
X108408571Y-152110000D01*
X108551428Y-152110000D01*
X109837142Y-150824285D02*
X109908571Y-150967142D01*
X109908571Y-151252857D01*
X109837142Y-151395714D01*
X109694285Y-151467142D01*
X109122857Y-151467142D01*
X108980000Y-151395714D01*
X108908571Y-151252857D01*
X108908571Y-150967142D01*
X108980000Y-150824285D01*
X109122857Y-150752857D01*
X109265714Y-150752857D01*
X109408571Y-151467142D01*
X109908571Y-150110000D02*
X108408571Y-150110000D01*
X108980000Y-150110000D02*
X108908571Y-149967142D01*
X108908571Y-149681428D01*
X108980000Y-149538571D01*
X109051428Y-149467142D01*
X109194285Y-149395714D01*
X109622857Y-149395714D01*
X109765714Y-149467142D01*
X109837142Y-149538571D01*
X109908571Y-149681428D01*
X109908571Y-149967142D01*
X109837142Y-150110000D01*
X109837142Y-148181428D02*
X109908571Y-148324285D01*
X109908571Y-148610000D01*
X109837142Y-148752857D01*
X109694285Y-148824285D01*
X109122857Y-148824285D01*
X108980000Y-148752857D01*
X108908571Y-148610000D01*
X108908571Y-148324285D01*
X108980000Y-148181428D01*
X109122857Y-148110000D01*
X109265714Y-148110000D01*
X109408571Y-148824285D01*
X109908571Y-147252857D02*
X109837142Y-147395714D01*
X109694285Y-147467142D01*
X108408571Y-147467142D01*
X109837142Y-146752857D02*
X109908571Y-146610000D01*
X109908571Y-146324285D01*
X109837142Y-146181428D01*
X109694285Y-146110000D01*
X109622857Y-146110000D01*
X109480000Y-146181428D01*
X109408571Y-146324285D01*
X109408571Y-146538571D01*
X109337142Y-146681428D01*
X109194285Y-146752857D01*
X109122857Y-146752857D01*
X108980000Y-146681428D01*
X108908571Y-146538571D01*
X108908571Y-146324285D01*
X108980000Y-146181428D01*
X99738571Y-186975714D02*
X99738571Y-187832857D01*
X99738571Y-187404285D02*
X98238571Y-187404285D01*
X98452857Y-187547142D01*
X98595714Y-187690000D01*
X98667142Y-187832857D01*
X98238571Y-185690000D02*
X98238571Y-185975714D01*
X98310000Y-186118571D01*
X98381428Y-186190000D01*
X98595714Y-186332857D01*
X98881428Y-186404285D01*
X99452857Y-186404285D01*
X99595714Y-186332857D01*
X99667142Y-186261428D01*
X99738571Y-186118571D01*
X99738571Y-185832857D01*
X99667142Y-185690000D01*
X99595714Y-185618571D01*
X99452857Y-185547142D01*
X99095714Y-185547142D01*
X98952857Y-185618571D01*
X98881428Y-185690000D01*
X98810000Y-185832857D01*
X98810000Y-186118571D01*
X98881428Y-186261428D01*
X98952857Y-186332857D01*
X99095714Y-186404285D01*
X97198571Y-186975714D02*
X97198571Y-187832857D01*
X97198571Y-187404285D02*
X95698571Y-187404285D01*
X95912857Y-187547142D01*
X96055714Y-187690000D01*
X96127142Y-187832857D01*
X95698571Y-185618571D02*
X95698571Y-186332857D01*
X96412857Y-186404285D01*
X96341428Y-186332857D01*
X96270000Y-186190000D01*
X96270000Y-185832857D01*
X96341428Y-185690000D01*
X96412857Y-185618571D01*
X96555714Y-185547142D01*
X96912857Y-185547142D01*
X97055714Y-185618571D01*
X97127142Y-185690000D01*
X97198571Y-185832857D01*
X97198571Y-186190000D01*
X97127142Y-186332857D01*
X97055714Y-186404285D01*
X94658571Y-186975714D02*
X94658571Y-187832857D01*
X94658571Y-187404285D02*
X93158571Y-187404285D01*
X93372857Y-187547142D01*
X93515714Y-187690000D01*
X93587142Y-187832857D01*
X93658571Y-185690000D02*
X94658571Y-185690000D01*
X93087142Y-186047142D02*
X94158571Y-186404285D01*
X94158571Y-185475714D01*
X92118571Y-186975714D02*
X92118571Y-187832857D01*
X92118571Y-187404285D02*
X90618571Y-187404285D01*
X90832857Y-187547142D01*
X90975714Y-187690000D01*
X91047142Y-187832857D01*
X90618571Y-186475714D02*
X90618571Y-185547142D01*
X91190000Y-186047142D01*
X91190000Y-185832857D01*
X91261428Y-185690000D01*
X91332857Y-185618571D01*
X91475714Y-185547142D01*
X91832857Y-185547142D01*
X91975714Y-185618571D01*
X92047142Y-185690000D01*
X92118571Y-185832857D01*
X92118571Y-186261428D01*
X92047142Y-186404285D01*
X91975714Y-186475714D01*
X89578571Y-186975714D02*
X89578571Y-187832857D01*
X89578571Y-187404285D02*
X88078571Y-187404285D01*
X88292857Y-187547142D01*
X88435714Y-187690000D01*
X88507142Y-187832857D01*
X88221428Y-186404285D02*
X88150000Y-186332857D01*
X88078571Y-186190000D01*
X88078571Y-185832857D01*
X88150000Y-185690000D01*
X88221428Y-185618571D01*
X88364285Y-185547142D01*
X88507142Y-185547142D01*
X88721428Y-185618571D01*
X89578571Y-186475714D01*
X89578571Y-185547142D01*
X87038571Y-186975714D02*
X87038571Y-187832857D01*
X87038571Y-187404285D02*
X85538571Y-187404285D01*
X85752857Y-187547142D01*
X85895714Y-187690000D01*
X85967142Y-187832857D01*
X87038571Y-185547142D02*
X87038571Y-186404285D01*
X87038571Y-185975714D02*
X85538571Y-185975714D01*
X85752857Y-186118571D01*
X85895714Y-186261428D01*
X85967142Y-186404285D01*
X84498571Y-186975714D02*
X84498571Y-187832857D01*
X84498571Y-187404285D02*
X82998571Y-187404285D01*
X83212857Y-187547142D01*
X83355714Y-187690000D01*
X83427142Y-187832857D01*
X82998571Y-186047142D02*
X82998571Y-185904285D01*
X83070000Y-185761428D01*
X83141428Y-185690000D01*
X83284285Y-185618571D01*
X83570000Y-185547142D01*
X83927142Y-185547142D01*
X84212857Y-185618571D01*
X84355714Y-185690000D01*
X84427142Y-185761428D01*
X84498571Y-185904285D01*
X84498571Y-186047142D01*
X84427142Y-186190000D01*
X84355714Y-186261428D01*
X84212857Y-186332857D01*
X83927142Y-186404285D01*
X83570000Y-186404285D01*
X83284285Y-186332857D01*
X83141428Y-186261428D01*
X83070000Y-186190000D01*
X82998571Y-186047142D01*
X81958571Y-186975714D02*
X81958571Y-186690000D01*
X81887142Y-186547142D01*
X81815714Y-186475714D01*
X81601428Y-186332857D01*
X81315714Y-186261428D01*
X80744285Y-186261428D01*
X80601428Y-186332857D01*
X80530000Y-186404285D01*
X80458571Y-186547142D01*
X80458571Y-186832857D01*
X80530000Y-186975714D01*
X80601428Y-187047142D01*
X80744285Y-187118571D01*
X81101428Y-187118571D01*
X81244285Y-187047142D01*
X81315714Y-186975714D01*
X81387142Y-186832857D01*
X81387142Y-186547142D01*
X81315714Y-186404285D01*
X81244285Y-186332857D01*
X81101428Y-186261428D01*
X78561428Y-186832857D02*
X78490000Y-186975714D01*
X78418571Y-187047142D01*
X78275714Y-187118571D01*
X78204285Y-187118571D01*
X78061428Y-187047142D01*
X77990000Y-186975714D01*
X77918571Y-186832857D01*
X77918571Y-186547142D01*
X77990000Y-186404285D01*
X78061428Y-186332857D01*
X78204285Y-186261428D01*
X78275714Y-186261428D01*
X78418571Y-186332857D01*
X78490000Y-186404285D01*
X78561428Y-186547142D01*
X78561428Y-186832857D01*
X78632857Y-186975714D01*
X78704285Y-187047142D01*
X78847142Y-187118571D01*
X79132857Y-187118571D01*
X79275714Y-187047142D01*
X79347142Y-186975714D01*
X79418571Y-186832857D01*
X79418571Y-186547142D01*
X79347142Y-186404285D01*
X79275714Y-186332857D01*
X79132857Y-186261428D01*
X78847142Y-186261428D01*
X78704285Y-186332857D01*
X78632857Y-186404285D01*
X78561428Y-186547142D01*
X75378571Y-187190000D02*
X75378571Y-186190000D01*
X76878571Y-186832857D01*
X72838571Y-186404285D02*
X72838571Y-186690000D01*
X72910000Y-186832857D01*
X72981428Y-186904285D01*
X73195714Y-187047142D01*
X73481428Y-187118571D01*
X74052857Y-187118571D01*
X74195714Y-187047142D01*
X74267142Y-186975714D01*
X74338571Y-186832857D01*
X74338571Y-186547142D01*
X74267142Y-186404285D01*
X74195714Y-186332857D01*
X74052857Y-186261428D01*
X73695714Y-186261428D01*
X73552857Y-186332857D01*
X73481428Y-186404285D01*
X73410000Y-186547142D01*
X73410000Y-186832857D01*
X73481428Y-186975714D01*
X73552857Y-187047142D01*
X73695714Y-187118571D01*
X70298571Y-186332857D02*
X70298571Y-187047142D01*
X71012857Y-187118571D01*
X70941428Y-187047142D01*
X70870000Y-186904285D01*
X70870000Y-186547142D01*
X70941428Y-186404285D01*
X71012857Y-186332857D01*
X71155714Y-186261428D01*
X71512857Y-186261428D01*
X71655714Y-186332857D01*
X71727142Y-186404285D01*
X71798571Y-186547142D01*
X71798571Y-186904285D01*
X71727142Y-187047142D01*
X71655714Y-187118571D01*
X68258571Y-186404285D02*
X69258571Y-186404285D01*
X67687142Y-186761428D02*
X68758571Y-187118571D01*
X68758571Y-186190000D01*
X65218571Y-187190000D02*
X65218571Y-186261428D01*
X65790000Y-186761428D01*
X65790000Y-186547142D01*
X65861428Y-186404285D01*
X65932857Y-186332857D01*
X66075714Y-186261428D01*
X66432857Y-186261428D01*
X66575714Y-186332857D01*
X66647142Y-186404285D01*
X66718571Y-186547142D01*
X66718571Y-186975714D01*
X66647142Y-187118571D01*
X66575714Y-187190000D01*
X62821428Y-187118571D02*
X62750000Y-187047142D01*
X62678571Y-186904285D01*
X62678571Y-186547142D01*
X62750000Y-186404285D01*
X62821428Y-186332857D01*
X62964285Y-186261428D01*
X63107142Y-186261428D01*
X63321428Y-186332857D01*
X64178571Y-187190000D01*
X64178571Y-186261428D01*
X16637142Y-151650000D02*
X16494285Y-151578571D01*
X16280000Y-151578571D01*
X16065714Y-151650000D01*
X15922857Y-151792857D01*
X15851428Y-151935714D01*
X15780000Y-152221428D01*
X15780000Y-152435714D01*
X15851428Y-152721428D01*
X15922857Y-152864285D01*
X16065714Y-153007142D01*
X16280000Y-153078571D01*
X16422857Y-153078571D01*
X16637142Y-153007142D01*
X16708571Y-152935714D01*
X16708571Y-152435714D01*
X16422857Y-152435714D01*
X17351428Y-153078571D02*
X17351428Y-151578571D01*
X18208571Y-153078571D01*
X18208571Y-151578571D01*
X18922857Y-153078571D02*
X18922857Y-151578571D01*
X19280000Y-151578571D01*
X19494285Y-151650000D01*
X19637142Y-151792857D01*
X19708571Y-151935714D01*
X19780000Y-152221428D01*
X19780000Y-152435714D01*
X19708571Y-152721428D01*
X19637142Y-152864285D01*
X19494285Y-153007142D01*
X19280000Y-153078571D01*
X18922857Y-153078571D01*
X28460000Y-139572857D02*
X28388571Y-139715714D01*
X28388571Y-139930000D01*
X28460000Y-140144285D01*
X28602857Y-140287142D01*
X28745714Y-140358571D01*
X29031428Y-140430000D01*
X29245714Y-140430000D01*
X29531428Y-140358571D01*
X29674285Y-140287142D01*
X29817142Y-140144285D01*
X29888571Y-139930000D01*
X29888571Y-139787142D01*
X29817142Y-139572857D01*
X29745714Y-139501428D01*
X29245714Y-139501428D01*
X29245714Y-139787142D01*
X29888571Y-138858571D02*
X28388571Y-138858571D01*
X29888571Y-138001428D01*
X28388571Y-138001428D01*
X29888571Y-137287142D02*
X28388571Y-137287142D01*
X28388571Y-136930000D01*
X28460000Y-136715714D01*
X28602857Y-136572857D01*
X28745714Y-136501428D01*
X29031428Y-136430000D01*
X29245714Y-136430000D01*
X29531428Y-136501428D01*
X29674285Y-136572857D01*
X29817142Y-136715714D01*
X29888571Y-136930000D01*
X29888571Y-137287142D01*
X25848571Y-138715714D02*
X25848571Y-139430000D01*
X26562857Y-139501428D01*
X26491428Y-139430000D01*
X26420000Y-139287142D01*
X26420000Y-138930000D01*
X26491428Y-138787142D01*
X26562857Y-138715714D01*
X26705714Y-138644285D01*
X27062857Y-138644285D01*
X27205714Y-138715714D01*
X27277142Y-138787142D01*
X27348571Y-138930000D01*
X27348571Y-139287142D01*
X27277142Y-139430000D01*
X27205714Y-139501428D01*
X25848571Y-138215714D02*
X27348571Y-137715714D01*
X25848571Y-137215714D01*
X24380000Y-139501428D02*
X24380000Y-138787142D01*
X24808571Y-139644285D02*
X23308571Y-139144285D01*
X24808571Y-138644285D01*
X23308571Y-137858571D02*
X23308571Y-137715714D01*
X23380000Y-137572857D01*
X23451428Y-137501428D01*
X23594285Y-137430000D01*
X23880000Y-137358571D01*
X24237142Y-137358571D01*
X24522857Y-137430000D01*
X24665714Y-137501428D01*
X24737142Y-137572857D01*
X24808571Y-137715714D01*
X24808571Y-137858571D01*
X24737142Y-138001428D01*
X24665714Y-138072857D01*
X24522857Y-138144285D01*
X24237142Y-138215714D01*
X23880000Y-138215714D01*
X23594285Y-138144285D01*
X23451428Y-138072857D01*
X23380000Y-138001428D01*
X23308571Y-137858571D01*
X79065714Y-154118571D02*
X79994285Y-154118571D01*
X79494285Y-154690000D01*
X79708571Y-154690000D01*
X79851428Y-154761428D01*
X79922857Y-154832857D01*
X79994285Y-154975714D01*
X79994285Y-155332857D01*
X79922857Y-155475714D01*
X79851428Y-155547142D01*
X79708571Y-155618571D01*
X79280000Y-155618571D01*
X79137142Y-155547142D01*
X79065714Y-155475714D01*
X80708571Y-155547142D02*
X80708571Y-155618571D01*
X80637142Y-155761428D01*
X80565714Y-155832857D01*
X81208571Y-154118571D02*
X82137142Y-154118571D01*
X81637142Y-154690000D01*
X81851428Y-154690000D01*
X81994285Y-154761428D01*
X82065714Y-154832857D01*
X82137142Y-154975714D01*
X82137142Y-155332857D01*
X82065714Y-155475714D01*
X81994285Y-155547142D01*
X81851428Y-155618571D01*
X81422857Y-155618571D01*
X81280000Y-155547142D01*
X81208571Y-155475714D01*
X82565714Y-154118571D02*
X83065714Y-155618571D01*
X83565714Y-154118571D01*
X78077142Y-154221428D02*
X78148571Y-154007142D01*
X78148571Y-153650000D01*
X78077142Y-153507142D01*
X78005714Y-153435714D01*
X77862857Y-153364285D01*
X77720000Y-153364285D01*
X77577142Y-153435714D01*
X77505714Y-153507142D01*
X77434285Y-153650000D01*
X77362857Y-153935714D01*
X77291428Y-154078571D01*
X77220000Y-154150000D01*
X77077142Y-154221428D01*
X76934285Y-154221428D01*
X76791428Y-154150000D01*
X76720000Y-154078571D01*
X76648571Y-153935714D01*
X76648571Y-153578571D01*
X76720000Y-153364285D01*
X78148571Y-152721428D02*
X76648571Y-152721428D01*
X76648571Y-152364285D01*
X76720000Y-152150000D01*
X76862857Y-152007142D01*
X77005714Y-151935714D01*
X77291428Y-151864285D01*
X77505714Y-151864285D01*
X77791428Y-151935714D01*
X77934285Y-152007142D01*
X78077142Y-152150000D01*
X78148571Y-152364285D01*
X78148571Y-152721428D01*
X77720000Y-151292857D02*
X77720000Y-150578571D01*
X78148571Y-151435714D02*
X76648571Y-150935714D01*
X78148571Y-150435714D01*
X71640000Y-153542857D02*
X71568571Y-153685714D01*
X71568571Y-153900000D01*
X71640000Y-154114285D01*
X71782857Y-154257142D01*
X71925714Y-154328571D01*
X72211428Y-154400000D01*
X72425714Y-154400000D01*
X72711428Y-154328571D01*
X72854285Y-154257142D01*
X72997142Y-154114285D01*
X73068571Y-153900000D01*
X73068571Y-153757142D01*
X72997142Y-153542857D01*
X72925714Y-153471428D01*
X72425714Y-153471428D01*
X72425714Y-153757142D01*
X73068571Y-152828571D02*
X71568571Y-152828571D01*
X73068571Y-151971428D01*
X71568571Y-151971428D01*
X73068571Y-151257142D02*
X71568571Y-151257142D01*
X71568571Y-150900000D01*
X71640000Y-150685714D01*
X71782857Y-150542857D01*
X71925714Y-150471428D01*
X72211428Y-150400000D01*
X72425714Y-150400000D01*
X72711428Y-150471428D01*
X72854285Y-150542857D01*
X72997142Y-150685714D01*
X73068571Y-150900000D01*
X73068571Y-151257142D01*
X91960000Y-138302857D02*
X91888571Y-138445714D01*
X91888571Y-138660000D01*
X91960000Y-138874285D01*
X92102857Y-139017142D01*
X92245714Y-139088571D01*
X92531428Y-139160000D01*
X92745714Y-139160000D01*
X93031428Y-139088571D01*
X93174285Y-139017142D01*
X93317142Y-138874285D01*
X93388571Y-138660000D01*
X93388571Y-138517142D01*
X93317142Y-138302857D01*
X93245714Y-138231428D01*
X92745714Y-138231428D01*
X92745714Y-138517142D01*
X93388571Y-137588571D02*
X91888571Y-137588571D01*
X93388571Y-136731428D01*
X91888571Y-136731428D01*
X93388571Y-136017142D02*
X91888571Y-136017142D01*
X91888571Y-135660000D01*
X91960000Y-135445714D01*
X92102857Y-135302857D01*
X92245714Y-135231428D01*
X92531428Y-135160000D01*
X92745714Y-135160000D01*
X93031428Y-135231428D01*
X93174285Y-135302857D01*
X93317142Y-135445714D01*
X93388571Y-135660000D01*
X93388571Y-136017142D01*
X86880000Y-138231428D02*
X86808571Y-138374285D01*
X86808571Y-138588571D01*
X86880000Y-138802857D01*
X87022857Y-138945714D01*
X87165714Y-139017142D01*
X87451428Y-139088571D01*
X87665714Y-139088571D01*
X87951428Y-139017142D01*
X88094285Y-138945714D01*
X88237142Y-138802857D01*
X88308571Y-138588571D01*
X88308571Y-138445714D01*
X88237142Y-138231428D01*
X88165714Y-138160000D01*
X87665714Y-138160000D01*
X87665714Y-138445714D01*
X87522857Y-137017142D02*
X87594285Y-136802857D01*
X87665714Y-136731428D01*
X87808571Y-136660000D01*
X88022857Y-136660000D01*
X88165714Y-136731428D01*
X88237142Y-136802857D01*
X88308571Y-136945714D01*
X88308571Y-137517142D01*
X86808571Y-137517142D01*
X86808571Y-137017142D01*
X86880000Y-136874285D01*
X86951428Y-136802857D01*
X87094285Y-136731428D01*
X87237142Y-136731428D01*
X87380000Y-136802857D01*
X87451428Y-136874285D01*
X87522857Y-137017142D01*
X87522857Y-137517142D01*
X86808571Y-135731428D02*
X86808571Y-135588571D01*
X86880000Y-135445714D01*
X86951428Y-135374285D01*
X87094285Y-135302857D01*
X87380000Y-135231428D01*
X87737142Y-135231428D01*
X88022857Y-135302857D01*
X88165714Y-135374285D01*
X88237142Y-135445714D01*
X88308571Y-135588571D01*
X88308571Y-135731428D01*
X88237142Y-135874285D01*
X88165714Y-135945714D01*
X88022857Y-136017142D01*
X87737142Y-136088571D01*
X87380000Y-136088571D01*
X87094285Y-136017142D01*
X86951428Y-135945714D01*
X86880000Y-135874285D01*
X86808571Y-135731428D01*
X80458571Y-139374285D02*
X80458571Y-138445714D01*
X81030000Y-138945714D01*
X81030000Y-138731428D01*
X81101428Y-138588571D01*
X81172857Y-138517142D01*
X81315714Y-138445714D01*
X81672857Y-138445714D01*
X81815714Y-138517142D01*
X81887142Y-138588571D01*
X81958571Y-138731428D01*
X81958571Y-139160000D01*
X81887142Y-139302857D01*
X81815714Y-139374285D01*
X81887142Y-137731428D02*
X81958571Y-137731428D01*
X82101428Y-137802857D01*
X82172857Y-137874285D01*
X80458571Y-137231428D02*
X80458571Y-136302857D01*
X81030000Y-136802857D01*
X81030000Y-136588571D01*
X81101428Y-136445714D01*
X81172857Y-136374285D01*
X81315714Y-136302857D01*
X81672857Y-136302857D01*
X81815714Y-136374285D01*
X81887142Y-136445714D01*
X81958571Y-136588571D01*
X81958571Y-137017142D01*
X81887142Y-137160000D01*
X81815714Y-137231428D01*
X80458571Y-135874285D02*
X81958571Y-135374285D01*
X80458571Y-134874285D01*
X75450000Y-138302857D02*
X75378571Y-138445714D01*
X75378571Y-138660000D01*
X75450000Y-138874285D01*
X75592857Y-139017142D01*
X75735714Y-139088571D01*
X76021428Y-139160000D01*
X76235714Y-139160000D01*
X76521428Y-139088571D01*
X76664285Y-139017142D01*
X76807142Y-138874285D01*
X76878571Y-138660000D01*
X76878571Y-138517142D01*
X76807142Y-138302857D01*
X76735714Y-138231428D01*
X76235714Y-138231428D01*
X76235714Y-138517142D01*
X76878571Y-137588571D02*
X75378571Y-137588571D01*
X76878571Y-136731428D01*
X75378571Y-136731428D01*
X76878571Y-136017142D02*
X75378571Y-136017142D01*
X75378571Y-135660000D01*
X75450000Y-135445714D01*
X75592857Y-135302857D01*
X75735714Y-135231428D01*
X76021428Y-135160000D01*
X76235714Y-135160000D01*
X76521428Y-135231428D01*
X76664285Y-135302857D01*
X76807142Y-135445714D01*
X76878571Y-135660000D01*
X76878571Y-136017142D01*
X71798571Y-138267142D02*
X70298571Y-138267142D01*
X70298571Y-137910000D01*
X70370000Y-137695714D01*
X70512857Y-137552857D01*
X70655714Y-137481428D01*
X70941428Y-137410000D01*
X71155714Y-137410000D01*
X71441428Y-137481428D01*
X71584285Y-137552857D01*
X71727142Y-137695714D01*
X71798571Y-137910000D01*
X71798571Y-138267142D01*
X70298571Y-136910000D02*
X70298571Y-135981428D01*
X70870000Y-136481428D01*
X70870000Y-136267142D01*
X70941428Y-136124285D01*
X71012857Y-136052857D01*
X71155714Y-135981428D01*
X71512857Y-135981428D01*
X71655714Y-136052857D01*
X71727142Y-136124285D01*
X71798571Y-136267142D01*
X71798571Y-136695714D01*
X71727142Y-136838571D01*
X71655714Y-136910000D01*
X63948571Y-139374285D02*
X63948571Y-138445714D01*
X64520000Y-138945714D01*
X64520000Y-138731428D01*
X64591428Y-138588571D01*
X64662857Y-138517142D01*
X64805714Y-138445714D01*
X65162857Y-138445714D01*
X65305714Y-138517142D01*
X65377142Y-138588571D01*
X65448571Y-138731428D01*
X65448571Y-139160000D01*
X65377142Y-139302857D01*
X65305714Y-139374285D01*
X65377142Y-137731428D02*
X65448571Y-137731428D01*
X65591428Y-137802857D01*
X65662857Y-137874285D01*
X63948571Y-137231428D02*
X63948571Y-136302857D01*
X64520000Y-136802857D01*
X64520000Y-136588571D01*
X64591428Y-136445714D01*
X64662857Y-136374285D01*
X64805714Y-136302857D01*
X65162857Y-136302857D01*
X65305714Y-136374285D01*
X65377142Y-136445714D01*
X65448571Y-136588571D01*
X65448571Y-137017142D01*
X65377142Y-137160000D01*
X65305714Y-137231428D01*
X63948571Y-135874285D02*
X65448571Y-135374285D01*
X63948571Y-134874285D01*
X58940000Y-138302857D02*
X58868571Y-138445714D01*
X58868571Y-138660000D01*
X58940000Y-138874285D01*
X59082857Y-139017142D01*
X59225714Y-139088571D01*
X59511428Y-139160000D01*
X59725714Y-139160000D01*
X60011428Y-139088571D01*
X60154285Y-139017142D01*
X60297142Y-138874285D01*
X60368571Y-138660000D01*
X60368571Y-138517142D01*
X60297142Y-138302857D01*
X60225714Y-138231428D01*
X59725714Y-138231428D01*
X59725714Y-138517142D01*
X60368571Y-137588571D02*
X58868571Y-137588571D01*
X60368571Y-136731428D01*
X58868571Y-136731428D01*
X60368571Y-136017142D02*
X58868571Y-136017142D01*
X58868571Y-135660000D01*
X58940000Y-135445714D01*
X59082857Y-135302857D01*
X59225714Y-135231428D01*
X59511428Y-135160000D01*
X59725714Y-135160000D01*
X60011428Y-135231428D01*
X60154285Y-135302857D01*
X60297142Y-135445714D01*
X60368571Y-135660000D01*
X60368571Y-136017142D01*
X55288571Y-138267142D02*
X53788571Y-138267142D01*
X53788571Y-137910000D01*
X53860000Y-137695714D01*
X54002857Y-137552857D01*
X54145714Y-137481428D01*
X54431428Y-137410000D01*
X54645714Y-137410000D01*
X54931428Y-137481428D01*
X55074285Y-137552857D01*
X55217142Y-137695714D01*
X55288571Y-137910000D01*
X55288571Y-138267142D01*
X54288571Y-136124285D02*
X55288571Y-136124285D01*
X53717142Y-136481428D02*
X54788571Y-136838571D01*
X54788571Y-135910000D01*
X47438571Y-139374285D02*
X47438571Y-138445714D01*
X48010000Y-138945714D01*
X48010000Y-138731428D01*
X48081428Y-138588571D01*
X48152857Y-138517142D01*
X48295714Y-138445714D01*
X48652857Y-138445714D01*
X48795714Y-138517142D01*
X48867142Y-138588571D01*
X48938571Y-138731428D01*
X48938571Y-139160000D01*
X48867142Y-139302857D01*
X48795714Y-139374285D01*
X48867142Y-137731428D02*
X48938571Y-137731428D01*
X49081428Y-137802857D01*
X49152857Y-137874285D01*
X47438571Y-137231428D02*
X47438571Y-136302857D01*
X48010000Y-136802857D01*
X48010000Y-136588571D01*
X48081428Y-136445714D01*
X48152857Y-136374285D01*
X48295714Y-136302857D01*
X48652857Y-136302857D01*
X48795714Y-136374285D01*
X48867142Y-136445714D01*
X48938571Y-136588571D01*
X48938571Y-137017142D01*
X48867142Y-137160000D01*
X48795714Y-137231428D01*
X47438571Y-135874285D02*
X48938571Y-135374285D01*
X47438571Y-134874285D01*
X43787142Y-138981428D02*
X43858571Y-138767142D01*
X43858571Y-138410000D01*
X43787142Y-138267142D01*
X43715714Y-138195714D01*
X43572857Y-138124285D01*
X43430000Y-138124285D01*
X43287142Y-138195714D01*
X43215714Y-138267142D01*
X43144285Y-138410000D01*
X43072857Y-138695714D01*
X43001428Y-138838571D01*
X42930000Y-138910000D01*
X42787142Y-138981428D01*
X42644285Y-138981428D01*
X42501428Y-138910000D01*
X42430000Y-138838571D01*
X42358571Y-138695714D01*
X42358571Y-138338571D01*
X42430000Y-138124285D01*
X43858571Y-137481428D02*
X42358571Y-137481428D01*
X42358571Y-137124285D01*
X42430000Y-136910000D01*
X42572857Y-136767142D01*
X42715714Y-136695714D01*
X43001428Y-136624285D01*
X43215714Y-136624285D01*
X43501428Y-136695714D01*
X43644285Y-136767142D01*
X43787142Y-136910000D01*
X43858571Y-137124285D01*
X43858571Y-137481428D01*
X43430000Y-136052857D02*
X43430000Y-135338571D01*
X43858571Y-136195714D02*
X42358571Y-135695714D01*
X43858571Y-135195714D01*
X37350000Y-138302857D02*
X37278571Y-138445714D01*
X37278571Y-138660000D01*
X37350000Y-138874285D01*
X37492857Y-139017142D01*
X37635714Y-139088571D01*
X37921428Y-139160000D01*
X38135714Y-139160000D01*
X38421428Y-139088571D01*
X38564285Y-139017142D01*
X38707142Y-138874285D01*
X38778571Y-138660000D01*
X38778571Y-138517142D01*
X38707142Y-138302857D01*
X38635714Y-138231428D01*
X38135714Y-138231428D01*
X38135714Y-138517142D01*
X38778571Y-137588571D02*
X37278571Y-137588571D01*
X38778571Y-136731428D01*
X37278571Y-136731428D01*
X38778571Y-136017142D02*
X37278571Y-136017142D01*
X37278571Y-135660000D01*
X37350000Y-135445714D01*
X37492857Y-135302857D01*
X37635714Y-135231428D01*
X37921428Y-135160000D01*
X38135714Y-135160000D01*
X38421428Y-135231428D01*
X38564285Y-135302857D01*
X38707142Y-135445714D01*
X38778571Y-135660000D01*
X38778571Y-136017142D01*
D11*
%TO.C,REF\u002A\u002A*%
G36*
X106971158Y-170587906D02*
G01*
X106983736Y-170555381D01*
X107008712Y-170505807D01*
X107047876Y-170434626D01*
X107050988Y-170429084D01*
X107088476Y-170363526D01*
X107121319Y-170308202D01*
X107146205Y-170268545D01*
X107159820Y-170249988D01*
X107160487Y-170249469D01*
X107179390Y-170253952D01*
X107221605Y-170274514D01*
X107284832Y-170309817D01*
X107366772Y-170358520D01*
X107465122Y-170419282D01*
X107577585Y-170490764D01*
X107605165Y-170508555D01*
X107681699Y-170554907D01*
X107747556Y-170588658D01*
X107796782Y-170606847D01*
X107806507Y-170608714D01*
X107849312Y-170607885D01*
X107917209Y-170598606D01*
X108005843Y-170582032D01*
X108110859Y-170559320D01*
X108227902Y-170531627D01*
X108352616Y-170500110D01*
X108480645Y-170465925D01*
X108607634Y-170430229D01*
X108729228Y-170394179D01*
X108841072Y-170358932D01*
X108938810Y-170325644D01*
X109018087Y-170295472D01*
X109065122Y-170274439D01*
X109115225Y-170249663D01*
X109163168Y-170226270D01*
X109165793Y-170225003D01*
X109214220Y-170186301D01*
X109246828Y-170129816D01*
X109262454Y-170064061D01*
X109259937Y-169997549D01*
X109238114Y-169938795D01*
X109209382Y-169905742D01*
X109130583Y-169858141D01*
X109032378Y-169823261D01*
X108924779Y-169804123D01*
X108863780Y-169801412D01*
X108749935Y-169812330D01*
X108655660Y-169844376D01*
X108576379Y-169899274D01*
X108558733Y-169916393D01*
X108509235Y-169967339D01*
X108159362Y-169970837D01*
X107809489Y-169974336D01*
X107674531Y-169885182D01*
X107613445Y-169843346D01*
X107558493Y-169803055D01*
X107517336Y-169770057D01*
X107502192Y-169755874D01*
X107464810Y-169715719D01*
X107494098Y-169661335D01*
X107515084Y-169626961D01*
X107531378Y-169608154D01*
X107534307Y-169606951D01*
X107546728Y-169594097D01*
X107555977Y-169572104D01*
X107564313Y-169550850D01*
X107580149Y-169518306D01*
X107605033Y-169471678D01*
X107640509Y-169408171D01*
X107688123Y-169324992D01*
X107749422Y-169219347D01*
X107782932Y-169161938D01*
X107823071Y-169094406D01*
X107851659Y-169050115D01*
X107872039Y-169025145D01*
X107887553Y-169015577D01*
X107901546Y-169017492D01*
X107904796Y-169019089D01*
X107925266Y-169034624D01*
X107963665Y-169067864D01*
X108015696Y-169114938D01*
X108077066Y-169171972D01*
X108129090Y-169221300D01*
X108252567Y-169334970D01*
X108359591Y-169423895D01*
X108451240Y-169488866D01*
X108528588Y-169530679D01*
X108567866Y-169544783D01*
X108602249Y-169550608D01*
X108660899Y-169556625D01*
X108737117Y-169562304D01*
X108824202Y-169567116D01*
X108879268Y-169569381D01*
X108974464Y-169572541D01*
X109044062Y-169573931D01*
X109093409Y-169573142D01*
X109127854Y-169569765D01*
X109152743Y-169563392D01*
X109173425Y-169553613D01*
X109186053Y-169545933D01*
X109234726Y-169501579D01*
X109268645Y-169444426D01*
X109283438Y-169384292D01*
X109278086Y-169339227D01*
X109254930Y-169298424D01*
X109213462Y-169247276D01*
X109160912Y-169192958D01*
X109104516Y-169142643D01*
X109051505Y-169103506D01*
X109025889Y-169089095D01*
X108990814Y-169067509D01*
X108937389Y-169028247D01*
X108869789Y-168974898D01*
X108792190Y-168911048D01*
X108708768Y-168840285D01*
X108623698Y-168766196D01*
X108541155Y-168692368D01*
X108465316Y-168622389D01*
X108400356Y-168559845D01*
X108352669Y-168510740D01*
X108305032Y-168456221D01*
X108269908Y-168410358D01*
X108250949Y-168378189D01*
X108248864Y-168367511D01*
X108257274Y-168351147D01*
X108279846Y-168310329D01*
X108315224Y-168247414D01*
X108362054Y-168164756D01*
X108418981Y-168064711D01*
X108484649Y-167949634D01*
X108557703Y-167821881D01*
X108636788Y-167683806D01*
X108720548Y-167537766D01*
X108807629Y-167386116D01*
X108896676Y-167231210D01*
X108986332Y-167075405D01*
X109075243Y-166921056D01*
X109162054Y-166770518D01*
X109245409Y-166626146D01*
X109323954Y-166490296D01*
X109396333Y-166365323D01*
X109461190Y-166253583D01*
X109517171Y-166157430D01*
X109562920Y-166079221D01*
X109597083Y-166021311D01*
X109618304Y-165986054D01*
X109624963Y-165975835D01*
X109626280Y-165989598D01*
X109627559Y-166032896D01*
X109628796Y-166104286D01*
X109629983Y-166202327D01*
X109631115Y-166325578D01*
X109632186Y-166472597D01*
X109633189Y-166641943D01*
X109634119Y-166832174D01*
X109634968Y-167041849D01*
X109635732Y-167269527D01*
X109636403Y-167513765D01*
X109636976Y-167773123D01*
X109637444Y-168046159D01*
X109637802Y-168331432D01*
X109638042Y-168627500D01*
X109638159Y-168932921D01*
X109638171Y-169061076D01*
X109638171Y-172161030D01*
X109254847Y-171939947D01*
X109173680Y-171893144D01*
X109069166Y-171832898D01*
X108944801Y-171761222D01*
X108804082Y-171680131D01*
X108650503Y-171591638D01*
X108487562Y-171497760D01*
X108318754Y-171400509D01*
X108147575Y-171301900D01*
X107977521Y-171203947D01*
X107934512Y-171179175D01*
X107777857Y-171088848D01*
X107628803Y-171002711D01*
X107489568Y-170922058D01*
X107362371Y-170848184D01*
X107249432Y-170782383D01*
X107152968Y-170725950D01*
X107075200Y-170680179D01*
X107018346Y-170646365D01*
X106984625Y-170625802D01*
X106976040Y-170620047D01*
X106969189Y-170607942D01*
X106971158Y-170587906D01*
G37*
X106971158Y-170587906D02*
X106983736Y-170555381D01*
X107008712Y-170505807D01*
X107047876Y-170434626D01*
X107050988Y-170429084D01*
X107088476Y-170363526D01*
X107121319Y-170308202D01*
X107146205Y-170268545D01*
X107159820Y-170249988D01*
X107160487Y-170249469D01*
X107179390Y-170253952D01*
X107221605Y-170274514D01*
X107284832Y-170309817D01*
X107366772Y-170358520D01*
X107465122Y-170419282D01*
X107577585Y-170490764D01*
X107605165Y-170508555D01*
X107681699Y-170554907D01*
X107747556Y-170588658D01*
X107796782Y-170606847D01*
X107806507Y-170608714D01*
X107849312Y-170607885D01*
X107917209Y-170598606D01*
X108005843Y-170582032D01*
X108110859Y-170559320D01*
X108227902Y-170531627D01*
X108352616Y-170500110D01*
X108480645Y-170465925D01*
X108607634Y-170430229D01*
X108729228Y-170394179D01*
X108841072Y-170358932D01*
X108938810Y-170325644D01*
X109018087Y-170295472D01*
X109065122Y-170274439D01*
X109115225Y-170249663D01*
X109163168Y-170226270D01*
X109165793Y-170225003D01*
X109214220Y-170186301D01*
X109246828Y-170129816D01*
X109262454Y-170064061D01*
X109259937Y-169997549D01*
X109238114Y-169938795D01*
X109209382Y-169905742D01*
X109130583Y-169858141D01*
X109032378Y-169823261D01*
X108924779Y-169804123D01*
X108863780Y-169801412D01*
X108749935Y-169812330D01*
X108655660Y-169844376D01*
X108576379Y-169899274D01*
X108558733Y-169916393D01*
X108509235Y-169967339D01*
X108159362Y-169970837D01*
X107809489Y-169974336D01*
X107674531Y-169885182D01*
X107613445Y-169843346D01*
X107558493Y-169803055D01*
X107517336Y-169770057D01*
X107502192Y-169755874D01*
X107464810Y-169715719D01*
X107494098Y-169661335D01*
X107515084Y-169626961D01*
X107531378Y-169608154D01*
X107534307Y-169606951D01*
X107546728Y-169594097D01*
X107555977Y-169572104D01*
X107564313Y-169550850D01*
X107580149Y-169518306D01*
X107605033Y-169471678D01*
X107640509Y-169408171D01*
X107688123Y-169324992D01*
X107749422Y-169219347D01*
X107782932Y-169161938D01*
X107823071Y-169094406D01*
X107851659Y-169050115D01*
X107872039Y-169025145D01*
X107887553Y-169015577D01*
X107901546Y-169017492D01*
X107904796Y-169019089D01*
X107925266Y-169034624D01*
X107963665Y-169067864D01*
X108015696Y-169114938D01*
X108077066Y-169171972D01*
X108129090Y-169221300D01*
X108252567Y-169334970D01*
X108359591Y-169423895D01*
X108451240Y-169488866D01*
X108528588Y-169530679D01*
X108567866Y-169544783D01*
X108602249Y-169550608D01*
X108660899Y-169556625D01*
X108737117Y-169562304D01*
X108824202Y-169567116D01*
X108879268Y-169569381D01*
X108974464Y-169572541D01*
X109044062Y-169573931D01*
X109093409Y-169573142D01*
X109127854Y-169569765D01*
X109152743Y-169563392D01*
X109173425Y-169553613D01*
X109186053Y-169545933D01*
X109234726Y-169501579D01*
X109268645Y-169444426D01*
X109283438Y-169384292D01*
X109278086Y-169339227D01*
X109254930Y-169298424D01*
X109213462Y-169247276D01*
X109160912Y-169192958D01*
X109104516Y-169142643D01*
X109051505Y-169103506D01*
X109025889Y-169089095D01*
X108990814Y-169067509D01*
X108937389Y-169028247D01*
X108869789Y-168974898D01*
X108792190Y-168911048D01*
X108708768Y-168840285D01*
X108623698Y-168766196D01*
X108541155Y-168692368D01*
X108465316Y-168622389D01*
X108400356Y-168559845D01*
X108352669Y-168510740D01*
X108305032Y-168456221D01*
X108269908Y-168410358D01*
X108250949Y-168378189D01*
X108248864Y-168367511D01*
X108257274Y-168351147D01*
X108279846Y-168310329D01*
X108315224Y-168247414D01*
X108362054Y-168164756D01*
X108418981Y-168064711D01*
X108484649Y-167949634D01*
X108557703Y-167821881D01*
X108636788Y-167683806D01*
X108720548Y-167537766D01*
X108807629Y-167386116D01*
X108896676Y-167231210D01*
X108986332Y-167075405D01*
X109075243Y-166921056D01*
X109162054Y-166770518D01*
X109245409Y-166626146D01*
X109323954Y-166490296D01*
X109396333Y-166365323D01*
X109461190Y-166253583D01*
X109517171Y-166157430D01*
X109562920Y-166079221D01*
X109597083Y-166021311D01*
X109618304Y-165986054D01*
X109624963Y-165975835D01*
X109626280Y-165989598D01*
X109627559Y-166032896D01*
X109628796Y-166104286D01*
X109629983Y-166202327D01*
X109631115Y-166325578D01*
X109632186Y-166472597D01*
X109633189Y-166641943D01*
X109634119Y-166832174D01*
X109634968Y-167041849D01*
X109635732Y-167269527D01*
X109636403Y-167513765D01*
X109636976Y-167773123D01*
X109637444Y-168046159D01*
X109637802Y-168331432D01*
X109638042Y-168627500D01*
X109638159Y-168932921D01*
X109638171Y-169061076D01*
X109638171Y-172161030D01*
X109254847Y-171939947D01*
X109173680Y-171893144D01*
X109069166Y-171832898D01*
X108944801Y-171761222D01*
X108804082Y-171680131D01*
X108650503Y-171591638D01*
X108487562Y-171497760D01*
X108318754Y-171400509D01*
X108147575Y-171301900D01*
X107977521Y-171203947D01*
X107934512Y-171179175D01*
X107777857Y-171088848D01*
X107628803Y-171002711D01*
X107489568Y-170922058D01*
X107362371Y-170848184D01*
X107249432Y-170782383D01*
X107152968Y-170725950D01*
X107075200Y-170680179D01*
X107018346Y-170646365D01*
X106984625Y-170625802D01*
X106976040Y-170620047D01*
X106969189Y-170607942D01*
X106971158Y-170587906D01*
G36*
X106914619Y-166922472D02*
G01*
X106933693Y-166911092D01*
X106977421Y-166885512D01*
X107043619Y-166846998D01*
X107130102Y-166796814D01*
X107234685Y-166736225D01*
X107355183Y-166666497D01*
X107489412Y-166588893D01*
X107635187Y-166504680D01*
X107790323Y-166415121D01*
X107950000Y-166323002D01*
X108113117Y-166228924D01*
X108269709Y-166138598D01*
X108417506Y-166053335D01*
X108554240Y-165974443D01*
X108677642Y-165903231D01*
X108785444Y-165841009D01*
X108875377Y-165789087D01*
X108945173Y-165748772D01*
X108992564Y-165721376D01*
X109014786Y-165708493D01*
X109052330Y-165687493D01*
X109075831Y-165676075D01*
X109079920Y-165675449D01*
X109072242Y-165689364D01*
X109050203Y-165728059D01*
X109014971Y-165789513D01*
X108967711Y-165871702D01*
X108909589Y-165972604D01*
X108841771Y-166090195D01*
X108765424Y-166222454D01*
X108681714Y-166367358D01*
X108591806Y-166522883D01*
X108496867Y-166687008D01*
X108460732Y-166749451D01*
X108364083Y-166916513D01*
X108271938Y-167075926D01*
X108185475Y-167225645D01*
X108105871Y-167363624D01*
X108034305Y-167487815D01*
X107971955Y-167596173D01*
X107919998Y-167686652D01*
X107879613Y-167757204D01*
X107851978Y-167805785D01*
X107838272Y-167830346D01*
X107836974Y-167832915D01*
X107825220Y-167825431D01*
X107793795Y-167799386D01*
X107745594Y-167757441D01*
X107683510Y-167702254D01*
X107610439Y-167636483D01*
X107529276Y-167562788D01*
X107442916Y-167483827D01*
X107354253Y-167402260D01*
X107266182Y-167320746D01*
X107181599Y-167241943D01*
X107103397Y-167168510D01*
X107034472Y-167103107D01*
X106977719Y-167048392D01*
X106936032Y-167007023D01*
X106922363Y-166992836D01*
X106878201Y-166945820D01*
X106914619Y-166922472D01*
G37*
X106914619Y-166922472D02*
X106933693Y-166911092D01*
X106977421Y-166885512D01*
X107043619Y-166846998D01*
X107130102Y-166796814D01*
X107234685Y-166736225D01*
X107355183Y-166666497D01*
X107489412Y-166588893D01*
X107635187Y-166504680D01*
X107790323Y-166415121D01*
X107950000Y-166323002D01*
X108113117Y-166228924D01*
X108269709Y-166138598D01*
X108417506Y-166053335D01*
X108554240Y-165974443D01*
X108677642Y-165903231D01*
X108785444Y-165841009D01*
X108875377Y-165789087D01*
X108945173Y-165748772D01*
X108992564Y-165721376D01*
X109014786Y-165708493D01*
X109052330Y-165687493D01*
X109075831Y-165676075D01*
X109079920Y-165675449D01*
X109072242Y-165689364D01*
X109050203Y-165728059D01*
X109014971Y-165789513D01*
X108967711Y-165871702D01*
X108909589Y-165972604D01*
X108841771Y-166090195D01*
X108765424Y-166222454D01*
X108681714Y-166367358D01*
X108591806Y-166522883D01*
X108496867Y-166687008D01*
X108460732Y-166749451D01*
X108364083Y-166916513D01*
X108271938Y-167075926D01*
X108185475Y-167225645D01*
X108105871Y-167363624D01*
X108034305Y-167487815D01*
X107971955Y-167596173D01*
X107919998Y-167686652D01*
X107879613Y-167757204D01*
X107851978Y-167805785D01*
X107838272Y-167830346D01*
X107836974Y-167832915D01*
X107825220Y-167825431D01*
X107793795Y-167799386D01*
X107745594Y-167757441D01*
X107683510Y-167702254D01*
X107610439Y-167636483D01*
X107529276Y-167562788D01*
X107442916Y-167483827D01*
X107354253Y-167402260D01*
X107266182Y-167320746D01*
X107181599Y-167241943D01*
X107103397Y-167168510D01*
X107034472Y-167103107D01*
X106977719Y-167048392D01*
X106936032Y-167007023D01*
X106922363Y-166992836D01*
X106878201Y-166945820D01*
X106914619Y-166922472D01*
G36*
X103765835Y-168745957D02*
G01*
X103803245Y-168722935D01*
X103862514Y-168687466D01*
X103941118Y-168641004D01*
X104036538Y-168585004D01*
X104146250Y-168520919D01*
X104267734Y-168450204D01*
X104398468Y-168374313D01*
X104535930Y-168294701D01*
X104677598Y-168212822D01*
X104820951Y-168130130D01*
X104963467Y-168048079D01*
X105102624Y-167968124D01*
X105235901Y-167891719D01*
X105360776Y-167820318D01*
X105474727Y-167755376D01*
X105575233Y-167698347D01*
X105659772Y-167650685D01*
X105725822Y-167613845D01*
X105770862Y-167589280D01*
X105792370Y-167578446D01*
X105793714Y-167578049D01*
X105811965Y-167591499D01*
X105839882Y-167628886D01*
X105874725Y-167685765D01*
X105913754Y-167757688D01*
X105950843Y-167832985D01*
X105995817Y-167935440D01*
X106036226Y-168043183D01*
X106072969Y-168159927D01*
X106106942Y-168289382D01*
X106139044Y-168435260D01*
X106170173Y-168601274D01*
X106201227Y-168791134D01*
X106230145Y-168987531D01*
X106255800Y-169158166D01*
X106281198Y-169301455D01*
X106307602Y-169420992D01*
X106336273Y-169520370D01*
X106368473Y-169603182D01*
X106405465Y-169673022D01*
X106448512Y-169733482D01*
X106498875Y-169788155D01*
X106517583Y-169805786D01*
X106561139Y-169844000D01*
X106596682Y-169872268D01*
X106617583Y-169885382D01*
X106619297Y-169885732D01*
X106629806Y-169890320D01*
X106629924Y-169906242D01*
X106618254Y-169936734D01*
X106593396Y-169985032D01*
X106553952Y-170054373D01*
X106525587Y-170102561D01*
X106481247Y-170174417D01*
X106443279Y-170230258D01*
X106414416Y-170266333D01*
X106397388Y-170278887D01*
X106397264Y-170278879D01*
X106381037Y-170271094D01*
X106340400Y-170249108D01*
X106277567Y-170214197D01*
X106194752Y-170167637D01*
X106094172Y-170110705D01*
X105978040Y-170044677D01*
X105848571Y-169970828D01*
X105707980Y-169890436D01*
X105558482Y-169804776D01*
X105402292Y-169715124D01*
X105241624Y-169622757D01*
X105078693Y-169528951D01*
X104915713Y-169434982D01*
X104754900Y-169342126D01*
X104598468Y-169251660D01*
X104448633Y-169164859D01*
X104307608Y-169083000D01*
X104177609Y-169007359D01*
X104060849Y-168939213D01*
X103959545Y-168879837D01*
X103875911Y-168830507D01*
X103812162Y-168792500D01*
X103770511Y-168767093D01*
X103753175Y-168755560D01*
X103752805Y-168755077D01*
X103765835Y-168745957D01*
G37*
X103765835Y-168745957D02*
X103803245Y-168722935D01*
X103862514Y-168687466D01*
X103941118Y-168641004D01*
X104036538Y-168585004D01*
X104146250Y-168520919D01*
X104267734Y-168450204D01*
X104398468Y-168374313D01*
X104535930Y-168294701D01*
X104677598Y-168212822D01*
X104820951Y-168130130D01*
X104963467Y-168048079D01*
X105102624Y-167968124D01*
X105235901Y-167891719D01*
X105360776Y-167820318D01*
X105474727Y-167755376D01*
X105575233Y-167698347D01*
X105659772Y-167650685D01*
X105725822Y-167613845D01*
X105770862Y-167589280D01*
X105792370Y-167578446D01*
X105793714Y-167578049D01*
X105811965Y-167591499D01*
X105839882Y-167628886D01*
X105874725Y-167685765D01*
X105913754Y-167757688D01*
X105950843Y-167832985D01*
X105995817Y-167935440D01*
X106036226Y-168043183D01*
X106072969Y-168159927D01*
X106106942Y-168289382D01*
X106139044Y-168435260D01*
X106170173Y-168601274D01*
X106201227Y-168791134D01*
X106230145Y-168987531D01*
X106255800Y-169158166D01*
X106281198Y-169301455D01*
X106307602Y-169420992D01*
X106336273Y-169520370D01*
X106368473Y-169603182D01*
X106405465Y-169673022D01*
X106448512Y-169733482D01*
X106498875Y-169788155D01*
X106517583Y-169805786D01*
X106561139Y-169844000D01*
X106596682Y-169872268D01*
X106617583Y-169885382D01*
X106619297Y-169885732D01*
X106629806Y-169890320D01*
X106629924Y-169906242D01*
X106618254Y-169936734D01*
X106593396Y-169985032D01*
X106553952Y-170054373D01*
X106525587Y-170102561D01*
X106481247Y-170174417D01*
X106443279Y-170230258D01*
X106414416Y-170266333D01*
X106397388Y-170278887D01*
X106397264Y-170278879D01*
X106381037Y-170271094D01*
X106340400Y-170249108D01*
X106277567Y-170214197D01*
X106194752Y-170167637D01*
X106094172Y-170110705D01*
X105978040Y-170044677D01*
X105848571Y-169970828D01*
X105707980Y-169890436D01*
X105558482Y-169804776D01*
X105402292Y-169715124D01*
X105241624Y-169622757D01*
X105078693Y-169528951D01*
X104915713Y-169434982D01*
X104754900Y-169342126D01*
X104598468Y-169251660D01*
X104448633Y-169164859D01*
X104307608Y-169083000D01*
X104177609Y-169007359D01*
X104060849Y-168939213D01*
X103959545Y-168879837D01*
X103875911Y-168830507D01*
X103812162Y-168792500D01*
X103770511Y-168767093D01*
X103753175Y-168755560D01*
X103752805Y-168755077D01*
X103765835Y-168745957D01*
D12*
%TO.C,MCP23017*%
X60900000Y-169180000D02*
G75*
G02*
X60900000Y-171180000I0J-1000000D01*
G01*
X60900000Y-171180000D02*
X60900000Y-172830000D01*
X60900000Y-172830000D02*
X96580000Y-172830000D01*
X96580000Y-172830000D02*
X96580000Y-167530000D01*
X96580000Y-167530000D02*
X60900000Y-167530000D01*
X60900000Y-167530000D02*
X60900000Y-169180000D01*
%TO.C,R3*%
X62850000Y-157830000D02*
X62850000Y-159670000D01*
X62850000Y-159670000D02*
X66690000Y-159670000D01*
X66690000Y-159670000D02*
X66690000Y-157830000D01*
X66690000Y-157830000D02*
X62850000Y-157830000D01*
X61900000Y-158750000D02*
X62850000Y-158750000D01*
X67640000Y-158750000D02*
X66690000Y-158750000D01*
%TO.C,R2*%
X60310000Y-152750000D02*
X60310000Y-154590000D01*
X60310000Y-154590000D02*
X64150000Y-154590000D01*
X64150000Y-154590000D02*
X64150000Y-152750000D01*
X64150000Y-152750000D02*
X60310000Y-152750000D01*
X59360000Y-153670000D02*
X60310000Y-153670000D01*
X65100000Y-153670000D02*
X64150000Y-153670000D01*
%TO.C,R1*%
X45070000Y-152750000D02*
X45070000Y-154590000D01*
X45070000Y-154590000D02*
X48910000Y-154590000D01*
X48910000Y-154590000D02*
X48910000Y-152750000D01*
X48910000Y-152750000D02*
X45070000Y-152750000D01*
X44120000Y-153670000D02*
X45070000Y-153670000D01*
X49860000Y-153670000D02*
X48910000Y-153670000D01*
%TO.C,Taster1*%
X95250000Y-147320000D02*
X85090000Y-147320000D01*
X95250000Y-148590000D02*
X95250000Y-140970000D01*
X95250000Y-140970000D02*
X85090000Y-140970000D01*
X85090000Y-140970000D02*
X85090000Y-148590000D01*
X85090000Y-148590000D02*
X95250000Y-148590000D01*
%TO.C,J6*%
X60890000Y-178630000D02*
X60890000Y-182650000D01*
X60890000Y-182650000D02*
X101110000Y-182650000D01*
X101110000Y-182650000D02*
X101110000Y-178630000D01*
X101110000Y-178630000D02*
X60890000Y-178630000D01*
X60890000Y-180340000D02*
X61390000Y-180340000D01*
X61390000Y-180340000D02*
X61390000Y-179130000D01*
X61390000Y-179130000D02*
X100610000Y-179130000D01*
X100610000Y-179130000D02*
X100610000Y-180340000D01*
X100610000Y-180340000D02*
X101110000Y-180340000D01*
X60890000Y-181150000D02*
X61890000Y-181150000D01*
X61890000Y-181150000D02*
X61890000Y-182650000D01*
X101110000Y-181150000D02*
X100110000Y-181150000D01*
X100110000Y-181150000D02*
X100110000Y-182650000D01*
X60590000Y-180450000D02*
X60590000Y-182950000D01*
X60590000Y-182950000D02*
X63090000Y-182950000D01*
%TO.C,Spannungsmessung1*%
X21520000Y-143070000D02*
X21520000Y-147090000D01*
X21520000Y-147090000D02*
X31740000Y-147090000D01*
X31740000Y-147090000D02*
X31740000Y-143070000D01*
X31740000Y-143070000D02*
X21520000Y-143070000D01*
X21520000Y-144780000D02*
X22020000Y-144780000D01*
X22020000Y-144780000D02*
X22020000Y-143570000D01*
X22020000Y-143570000D02*
X31240000Y-143570000D01*
X31240000Y-143570000D02*
X31240000Y-144780000D01*
X31240000Y-144780000D02*
X31740000Y-144780000D01*
X21520000Y-145590000D02*
X22520000Y-145590000D01*
X22520000Y-145590000D02*
X22520000Y-147090000D01*
X31740000Y-145590000D02*
X30740000Y-145590000D01*
X30740000Y-145590000D02*
X30740000Y-147090000D01*
X21220000Y-144890000D02*
X21220000Y-147390000D01*
X21220000Y-147390000D02*
X23720000Y-147390000D01*
%TO.C,Display1*%
X21520000Y-150690000D02*
X21520000Y-154710000D01*
X21520000Y-154710000D02*
X34240000Y-154710000D01*
X34240000Y-154710000D02*
X34240000Y-150690000D01*
X34240000Y-150690000D02*
X21520000Y-150690000D01*
X21520000Y-152400000D02*
X22020000Y-152400000D01*
X22020000Y-152400000D02*
X22020000Y-151190000D01*
X22020000Y-151190000D02*
X33740000Y-151190000D01*
X33740000Y-151190000D02*
X33740000Y-152400000D01*
X33740000Y-152400000D02*
X34240000Y-152400000D01*
X21520000Y-153210000D02*
X22520000Y-153210000D01*
X22520000Y-153210000D02*
X22520000Y-154710000D01*
X34240000Y-153210000D02*
X33240000Y-153210000D01*
X33240000Y-153210000D02*
X33240000Y-154710000D01*
X21220000Y-152510000D02*
X21220000Y-155010000D01*
X21220000Y-155010000D02*
X23720000Y-155010000D01*
%TO.C,Kuehlen1*%
X68580000Y-148590000D02*
X68580000Y-140970000D01*
X83820000Y-148590000D02*
X83820000Y-140970000D01*
X68580000Y-147320000D02*
X83820000Y-147320000D01*
X68580000Y-140970000D02*
X83820000Y-140970000D01*
X68580000Y-148590000D02*
X83820000Y-148590000D01*
%TO.C,Spuelen1*%
X52070000Y-148590000D02*
X52070000Y-140970000D01*
X67310000Y-148590000D02*
X67310000Y-140970000D01*
X52070000Y-147320000D02*
X67310000Y-147320000D01*
X52070000Y-140970000D02*
X67310000Y-140970000D01*
X52070000Y-148590000D02*
X67310000Y-148590000D01*
%TO.C,MilchTemp1*%
X35560000Y-148590000D02*
X35560000Y-140970000D01*
X50800000Y-148590000D02*
X50800000Y-140970000D01*
X35560000Y-147320000D02*
X50800000Y-147320000D01*
X35560000Y-140970000D02*
X50800000Y-140970000D01*
X35560000Y-148590000D02*
X50800000Y-148590000D01*
%TO.C,Piezo1*%
X94990000Y-157480000D02*
G75*
G03*
X94990000Y-157480000I-6100000J0D01*
G01*
%TO.C,DS18B20*%
X78038478Y-158048478D02*
G75*
G03*
X76200000Y-153610000I-1838478J1838478D01*
G01*
X74361522Y-158048478D02*
G75*
G02*
X76200000Y-153610000I1838478J1838478D01*
G01*
X74400000Y-158060000D02*
X78000000Y-158060000D01*
%TO.C,WeMosD1Mini1*%
X56600000Y-180980000D02*
G75*
G02*
X54470000Y-183110000I-2130000J0D01*
G01*
X54470000Y-157250000D02*
G75*
G02*
X56600000Y-159380000I0J-2130000D01*
G01*
X22140000Y-159790000D02*
X22140000Y-183110000D01*
X29040000Y-157250000D02*
X54470000Y-157250000D01*
X22140000Y-183110000D02*
X54470000Y-183110000D01*
X56600000Y-180990000D02*
X56600000Y-159380000D01*
D13*
G36*
X48895000Y-156210000D02*
G01*
X47625000Y-156210000D01*
X48260000Y-156845000D01*
X48895000Y-156210000D01*
G37*
X48895000Y-156210000D02*
X47625000Y-156210000D01*
X48260000Y-156845000D01*
X48895000Y-156210000D01*
D12*
X29040000Y-157250000D02*
X29040000Y-159790000D01*
X29040000Y-159790000D02*
X22140000Y-159790000D01*
%TO.C,MCP23017*%
D13*
X60352380Y-173894285D02*
X59352380Y-173894285D01*
X60066666Y-173560952D01*
X59352380Y-173227619D01*
X60352380Y-173227619D01*
X60257142Y-172180000D02*
X60304761Y-172227619D01*
X60352380Y-172370476D01*
X60352380Y-172465714D01*
X60304761Y-172608571D01*
X60209523Y-172703809D01*
X60114285Y-172751428D01*
X59923809Y-172799047D01*
X59780952Y-172799047D01*
X59590476Y-172751428D01*
X59495238Y-172703809D01*
X59400000Y-172608571D01*
X59352380Y-172465714D01*
X59352380Y-172370476D01*
X59400000Y-172227619D01*
X59447619Y-172180000D01*
X60352380Y-171751428D02*
X59352380Y-171751428D01*
X59352380Y-171370476D01*
X59400000Y-171275238D01*
X59447619Y-171227619D01*
X59542857Y-171180000D01*
X59685714Y-171180000D01*
X59780952Y-171227619D01*
X59828571Y-171275238D01*
X59876190Y-171370476D01*
X59876190Y-171751428D01*
X59447619Y-170799047D02*
X59400000Y-170751428D01*
X59352380Y-170656190D01*
X59352380Y-170418095D01*
X59400000Y-170322857D01*
X59447619Y-170275238D01*
X59542857Y-170227619D01*
X59638095Y-170227619D01*
X59780952Y-170275238D01*
X60352380Y-170846666D01*
X60352380Y-170227619D01*
X59352380Y-169894285D02*
X59352380Y-169275238D01*
X59733333Y-169608571D01*
X59733333Y-169465714D01*
X59780952Y-169370476D01*
X59828571Y-169322857D01*
X59923809Y-169275238D01*
X60161904Y-169275238D01*
X60257142Y-169322857D01*
X60304761Y-169370476D01*
X60352380Y-169465714D01*
X60352380Y-169751428D01*
X60304761Y-169846666D01*
X60257142Y-169894285D01*
X59352380Y-168656190D02*
X59352380Y-168560952D01*
X59400000Y-168465714D01*
X59447619Y-168418095D01*
X59542857Y-168370476D01*
X59733333Y-168322857D01*
X59971428Y-168322857D01*
X60161904Y-168370476D01*
X60257142Y-168418095D01*
X60304761Y-168465714D01*
X60352380Y-168560952D01*
X60352380Y-168656190D01*
X60304761Y-168751428D01*
X60257142Y-168799047D01*
X60161904Y-168846666D01*
X59971428Y-168894285D01*
X59733333Y-168894285D01*
X59542857Y-168846666D01*
X59447619Y-168799047D01*
X59400000Y-168751428D01*
X59352380Y-168656190D01*
X60352380Y-167370476D02*
X60352380Y-167941904D01*
X60352380Y-167656190D02*
X59352380Y-167656190D01*
X59495238Y-167751428D01*
X59590476Y-167846666D01*
X59638095Y-167941904D01*
X59352380Y-167037142D02*
X59352380Y-166370476D01*
X60352380Y-166799047D01*
%TO.C,R3*%
X64603333Y-157282380D02*
X64270000Y-156806190D01*
X64031904Y-157282380D02*
X64031904Y-156282380D01*
X64412857Y-156282380D01*
X64508095Y-156330000D01*
X64555714Y-156377619D01*
X64603333Y-156472857D01*
X64603333Y-156615714D01*
X64555714Y-156710952D01*
X64508095Y-156758571D01*
X64412857Y-156806190D01*
X64031904Y-156806190D01*
X64936666Y-156282380D02*
X65555714Y-156282380D01*
X65222380Y-156663333D01*
X65365238Y-156663333D01*
X65460476Y-156710952D01*
X65508095Y-156758571D01*
X65555714Y-156853809D01*
X65555714Y-157091904D01*
X65508095Y-157187142D01*
X65460476Y-157234761D01*
X65365238Y-157282380D01*
X65079523Y-157282380D01*
X64984285Y-157234761D01*
X64936666Y-157187142D01*
%TO.C,R2*%
X62063333Y-152202380D02*
X61730000Y-151726190D01*
X61491904Y-152202380D02*
X61491904Y-151202380D01*
X61872857Y-151202380D01*
X61968095Y-151250000D01*
X62015714Y-151297619D01*
X62063333Y-151392857D01*
X62063333Y-151535714D01*
X62015714Y-151630952D01*
X61968095Y-151678571D01*
X61872857Y-151726190D01*
X61491904Y-151726190D01*
X62444285Y-151297619D02*
X62491904Y-151250000D01*
X62587142Y-151202380D01*
X62825238Y-151202380D01*
X62920476Y-151250000D01*
X62968095Y-151297619D01*
X63015714Y-151392857D01*
X63015714Y-151488095D01*
X62968095Y-151630952D01*
X62396666Y-152202380D01*
X63015714Y-152202380D01*
%TO.C,R1*%
X46823333Y-152202380D02*
X46490000Y-151726190D01*
X46251904Y-152202380D02*
X46251904Y-151202380D01*
X46632857Y-151202380D01*
X46728095Y-151250000D01*
X46775714Y-151297619D01*
X46823333Y-151392857D01*
X46823333Y-151535714D01*
X46775714Y-151630952D01*
X46728095Y-151678571D01*
X46632857Y-151726190D01*
X46251904Y-151726190D01*
X47775714Y-152202380D02*
X47204285Y-152202380D01*
X47490000Y-152202380D02*
X47490000Y-151202380D01*
X47394761Y-151345238D01*
X47299523Y-151440476D01*
X47204285Y-151488095D01*
%TO.C,Taster1*%
X87527142Y-139152380D02*
X88098571Y-139152380D01*
X87812857Y-140152380D02*
X87812857Y-139152380D01*
X88860476Y-140152380D02*
X88860476Y-139628571D01*
X88812857Y-139533333D01*
X88717619Y-139485714D01*
X88527142Y-139485714D01*
X88431904Y-139533333D01*
X88860476Y-140104761D02*
X88765238Y-140152380D01*
X88527142Y-140152380D01*
X88431904Y-140104761D01*
X88384285Y-140009523D01*
X88384285Y-139914285D01*
X88431904Y-139819047D01*
X88527142Y-139771428D01*
X88765238Y-139771428D01*
X88860476Y-139723809D01*
X89289047Y-140104761D02*
X89384285Y-140152380D01*
X89574761Y-140152380D01*
X89670000Y-140104761D01*
X89717619Y-140009523D01*
X89717619Y-139961904D01*
X89670000Y-139866666D01*
X89574761Y-139819047D01*
X89431904Y-139819047D01*
X89336666Y-139771428D01*
X89289047Y-139676190D01*
X89289047Y-139628571D01*
X89336666Y-139533333D01*
X89431904Y-139485714D01*
X89574761Y-139485714D01*
X89670000Y-139533333D01*
X90003333Y-139485714D02*
X90384285Y-139485714D01*
X90146190Y-139152380D02*
X90146190Y-140009523D01*
X90193809Y-140104761D01*
X90289047Y-140152380D01*
X90384285Y-140152380D01*
X91098571Y-140104761D02*
X91003333Y-140152380D01*
X90812857Y-140152380D01*
X90717619Y-140104761D01*
X90670000Y-140009523D01*
X90670000Y-139628571D01*
X90717619Y-139533333D01*
X90812857Y-139485714D01*
X91003333Y-139485714D01*
X91098571Y-139533333D01*
X91146190Y-139628571D01*
X91146190Y-139723809D01*
X90670000Y-139819047D01*
X91574761Y-140152380D02*
X91574761Y-139485714D01*
X91574761Y-139676190D02*
X91622380Y-139580952D01*
X91670000Y-139533333D01*
X91765238Y-139485714D01*
X91860476Y-139485714D01*
X92717619Y-140152380D02*
X92146190Y-140152380D01*
X92431904Y-140152380D02*
X92431904Y-139152380D01*
X92336666Y-139295238D01*
X92241428Y-139390476D01*
X92146190Y-139438095D01*
%TO.C,J6*%
X80666666Y-176992380D02*
X80666666Y-177706666D01*
X80619047Y-177849523D01*
X80523809Y-177944761D01*
X80380952Y-177992380D01*
X80285714Y-177992380D01*
X81571428Y-176992380D02*
X81380952Y-176992380D01*
X81285714Y-177040000D01*
X81238095Y-177087619D01*
X81142857Y-177230476D01*
X81095238Y-177420952D01*
X81095238Y-177801904D01*
X81142857Y-177897142D01*
X81190476Y-177944761D01*
X81285714Y-177992380D01*
X81476190Y-177992380D01*
X81571428Y-177944761D01*
X81619047Y-177897142D01*
X81666666Y-177801904D01*
X81666666Y-177563809D01*
X81619047Y-177468571D01*
X81571428Y-177420952D01*
X81476190Y-177373333D01*
X81285714Y-177373333D01*
X81190476Y-177420952D01*
X81142857Y-177468571D01*
X81095238Y-177563809D01*
%TO.C,Spannungsmessung1*%
X19034761Y-142384761D02*
X19177619Y-142432380D01*
X19415714Y-142432380D01*
X19510952Y-142384761D01*
X19558571Y-142337142D01*
X19606190Y-142241904D01*
X19606190Y-142146666D01*
X19558571Y-142051428D01*
X19510952Y-142003809D01*
X19415714Y-141956190D01*
X19225238Y-141908571D01*
X19130000Y-141860952D01*
X19082380Y-141813333D01*
X19034761Y-141718095D01*
X19034761Y-141622857D01*
X19082380Y-141527619D01*
X19130000Y-141480000D01*
X19225238Y-141432380D01*
X19463333Y-141432380D01*
X19606190Y-141480000D01*
X20034761Y-141765714D02*
X20034761Y-142765714D01*
X20034761Y-141813333D02*
X20130000Y-141765714D01*
X20320476Y-141765714D01*
X20415714Y-141813333D01*
X20463333Y-141860952D01*
X20510952Y-141956190D01*
X20510952Y-142241904D01*
X20463333Y-142337142D01*
X20415714Y-142384761D01*
X20320476Y-142432380D01*
X20130000Y-142432380D01*
X20034761Y-142384761D01*
X21368095Y-142432380D02*
X21368095Y-141908571D01*
X21320476Y-141813333D01*
X21225238Y-141765714D01*
X21034761Y-141765714D01*
X20939523Y-141813333D01*
X21368095Y-142384761D02*
X21272857Y-142432380D01*
X21034761Y-142432380D01*
X20939523Y-142384761D01*
X20891904Y-142289523D01*
X20891904Y-142194285D01*
X20939523Y-142099047D01*
X21034761Y-142051428D01*
X21272857Y-142051428D01*
X21368095Y-142003809D01*
X21844285Y-141765714D02*
X21844285Y-142432380D01*
X21844285Y-141860952D02*
X21891904Y-141813333D01*
X21987142Y-141765714D01*
X22129999Y-141765714D01*
X22225238Y-141813333D01*
X22272857Y-141908571D01*
X22272857Y-142432380D01*
X22749047Y-141765714D02*
X22749047Y-142432380D01*
X22749047Y-141860952D02*
X22796666Y-141813333D01*
X22891904Y-141765714D01*
X23034761Y-141765714D01*
X23130000Y-141813333D01*
X23177619Y-141908571D01*
X23177619Y-142432380D01*
X24082380Y-141765714D02*
X24082380Y-142432380D01*
X23653809Y-141765714D02*
X23653809Y-142289523D01*
X23701428Y-142384761D01*
X23796666Y-142432380D01*
X23939523Y-142432380D01*
X24034761Y-142384761D01*
X24082380Y-142337142D01*
X24558571Y-141765714D02*
X24558571Y-142432380D01*
X24558571Y-141860952D02*
X24606190Y-141813333D01*
X24701428Y-141765714D01*
X24844285Y-141765714D01*
X24939523Y-141813333D01*
X24987142Y-141908571D01*
X24987142Y-142432380D01*
X25891904Y-141765714D02*
X25891904Y-142575238D01*
X25844285Y-142670476D01*
X25796666Y-142718095D01*
X25701428Y-142765714D01*
X25558571Y-142765714D01*
X25463333Y-142718095D01*
X25891904Y-142384761D02*
X25796666Y-142432380D01*
X25606190Y-142432380D01*
X25510952Y-142384761D01*
X25463333Y-142337142D01*
X25415714Y-142241904D01*
X25415714Y-141956190D01*
X25463333Y-141860952D01*
X25510952Y-141813333D01*
X25606190Y-141765714D01*
X25796666Y-141765714D01*
X25891904Y-141813333D01*
X26320476Y-142384761D02*
X26415714Y-142432380D01*
X26606190Y-142432380D01*
X26701428Y-142384761D01*
X26749047Y-142289523D01*
X26749047Y-142241904D01*
X26701428Y-142146666D01*
X26606190Y-142099047D01*
X26463333Y-142099047D01*
X26368095Y-142051428D01*
X26320476Y-141956190D01*
X26320476Y-141908571D01*
X26368095Y-141813333D01*
X26463333Y-141765714D01*
X26606190Y-141765714D01*
X26701428Y-141813333D01*
X27177619Y-142432380D02*
X27177619Y-141765714D01*
X27177619Y-141860952D02*
X27225238Y-141813333D01*
X27320476Y-141765714D01*
X27463333Y-141765714D01*
X27558571Y-141813333D01*
X27606190Y-141908571D01*
X27606190Y-142432380D01*
X27606190Y-141908571D02*
X27653809Y-141813333D01*
X27749047Y-141765714D01*
X27891904Y-141765714D01*
X27987142Y-141813333D01*
X28034761Y-141908571D01*
X28034761Y-142432380D01*
X28891904Y-142384761D02*
X28796666Y-142432380D01*
X28606190Y-142432380D01*
X28510952Y-142384761D01*
X28463333Y-142289523D01*
X28463333Y-141908571D01*
X28510952Y-141813333D01*
X28606190Y-141765714D01*
X28796666Y-141765714D01*
X28891904Y-141813333D01*
X28939523Y-141908571D01*
X28939523Y-142003809D01*
X28463333Y-142099047D01*
X29320476Y-142384761D02*
X29415714Y-142432380D01*
X29606190Y-142432380D01*
X29701428Y-142384761D01*
X29749047Y-142289523D01*
X29749047Y-142241904D01*
X29701428Y-142146666D01*
X29606190Y-142099047D01*
X29463333Y-142099047D01*
X29368095Y-142051428D01*
X29320476Y-141956190D01*
X29320476Y-141908571D01*
X29368095Y-141813333D01*
X29463333Y-141765714D01*
X29606190Y-141765714D01*
X29701428Y-141813333D01*
X30130000Y-142384761D02*
X30225238Y-142432380D01*
X30415714Y-142432380D01*
X30510952Y-142384761D01*
X30558571Y-142289523D01*
X30558571Y-142241904D01*
X30510952Y-142146666D01*
X30415714Y-142099047D01*
X30272857Y-142099047D01*
X30177619Y-142051428D01*
X30130000Y-141956190D01*
X30130000Y-141908571D01*
X30177619Y-141813333D01*
X30272857Y-141765714D01*
X30415714Y-141765714D01*
X30510952Y-141813333D01*
X31415714Y-141765714D02*
X31415714Y-142432380D01*
X30987142Y-141765714D02*
X30987142Y-142289523D01*
X31034761Y-142384761D01*
X31130000Y-142432380D01*
X31272857Y-142432380D01*
X31368095Y-142384761D01*
X31415714Y-142337142D01*
X31891904Y-141765714D02*
X31891904Y-142432380D01*
X31891904Y-141860952D02*
X31939523Y-141813333D01*
X32034761Y-141765714D01*
X32177619Y-141765714D01*
X32272857Y-141813333D01*
X32320476Y-141908571D01*
X32320476Y-142432380D01*
X33225238Y-141765714D02*
X33225238Y-142575238D01*
X33177619Y-142670476D01*
X33130000Y-142718095D01*
X33034761Y-142765714D01*
X32891904Y-142765714D01*
X32796666Y-142718095D01*
X33225238Y-142384761D02*
X33130000Y-142432380D01*
X32939523Y-142432380D01*
X32844285Y-142384761D01*
X32796666Y-142337142D01*
X32749047Y-142241904D01*
X32749047Y-141956190D01*
X32796666Y-141860952D01*
X32844285Y-141813333D01*
X32939523Y-141765714D01*
X33130000Y-141765714D01*
X33225238Y-141813333D01*
X34225238Y-142432380D02*
X33653809Y-142432380D01*
X33939523Y-142432380D02*
X33939523Y-141432380D01*
X33844285Y-141575238D01*
X33749047Y-141670476D01*
X33653809Y-141718095D01*
%TO.C,Display1*%
X24951428Y-150052380D02*
X24951428Y-149052380D01*
X25189523Y-149052380D01*
X25332380Y-149100000D01*
X25427619Y-149195238D01*
X25475238Y-149290476D01*
X25522857Y-149480952D01*
X25522857Y-149623809D01*
X25475238Y-149814285D01*
X25427619Y-149909523D01*
X25332380Y-150004761D01*
X25189523Y-150052380D01*
X24951428Y-150052380D01*
X25951428Y-150052380D02*
X25951428Y-149385714D01*
X25951428Y-149052380D02*
X25903809Y-149100000D01*
X25951428Y-149147619D01*
X25999047Y-149100000D01*
X25951428Y-149052380D01*
X25951428Y-149147619D01*
X26380000Y-150004761D02*
X26475238Y-150052380D01*
X26665714Y-150052380D01*
X26760952Y-150004761D01*
X26808571Y-149909523D01*
X26808571Y-149861904D01*
X26760952Y-149766666D01*
X26665714Y-149719047D01*
X26522857Y-149719047D01*
X26427619Y-149671428D01*
X26380000Y-149576190D01*
X26380000Y-149528571D01*
X26427619Y-149433333D01*
X26522857Y-149385714D01*
X26665714Y-149385714D01*
X26760952Y-149433333D01*
X27237142Y-149385714D02*
X27237142Y-150385714D01*
X27237142Y-149433333D02*
X27332380Y-149385714D01*
X27522857Y-149385714D01*
X27618095Y-149433333D01*
X27665714Y-149480952D01*
X27713333Y-149576190D01*
X27713333Y-149861904D01*
X27665714Y-149957142D01*
X27618095Y-150004761D01*
X27522857Y-150052380D01*
X27332380Y-150052380D01*
X27237142Y-150004761D01*
X28284761Y-150052380D02*
X28189523Y-150004761D01*
X28141904Y-149909523D01*
X28141904Y-149052380D01*
X29094285Y-150052380D02*
X29094285Y-149528571D01*
X29046666Y-149433333D01*
X28951428Y-149385714D01*
X28760952Y-149385714D01*
X28665714Y-149433333D01*
X29094285Y-150004761D02*
X28999047Y-150052380D01*
X28760952Y-150052380D01*
X28665714Y-150004761D01*
X28618095Y-149909523D01*
X28618095Y-149814285D01*
X28665714Y-149719047D01*
X28760952Y-149671428D01*
X28999047Y-149671428D01*
X29094285Y-149623809D01*
X29475238Y-149385714D02*
X29713333Y-150052380D01*
X29951428Y-149385714D02*
X29713333Y-150052380D01*
X29618095Y-150290476D01*
X29570476Y-150338095D01*
X29475238Y-150385714D01*
X30856190Y-150052380D02*
X30284761Y-150052380D01*
X30570476Y-150052380D02*
X30570476Y-149052380D01*
X30475238Y-149195238D01*
X30380000Y-149290476D01*
X30284761Y-149338095D01*
%TO.C,Kuehlen1*%
X72955714Y-140582380D02*
X72955714Y-139582380D01*
X73527142Y-140582380D02*
X73098571Y-140010952D01*
X73527142Y-139582380D02*
X72955714Y-140153809D01*
X74384285Y-139915714D02*
X74384285Y-140582380D01*
X73955714Y-139915714D02*
X73955714Y-140439523D01*
X74003333Y-140534761D01*
X74098571Y-140582380D01*
X74241428Y-140582380D01*
X74336666Y-140534761D01*
X74384285Y-140487142D01*
X75241428Y-140534761D02*
X75146190Y-140582380D01*
X74955714Y-140582380D01*
X74860476Y-140534761D01*
X74812857Y-140439523D01*
X74812857Y-140058571D01*
X74860476Y-139963333D01*
X74955714Y-139915714D01*
X75146190Y-139915714D01*
X75241428Y-139963333D01*
X75289047Y-140058571D01*
X75289047Y-140153809D01*
X74812857Y-140249047D01*
X75717619Y-140582380D02*
X75717619Y-139582380D01*
X76146190Y-140582380D02*
X76146190Y-140058571D01*
X76098571Y-139963333D01*
X76003333Y-139915714D01*
X75860476Y-139915714D01*
X75765238Y-139963333D01*
X75717619Y-140010952D01*
X76765238Y-140582380D02*
X76670000Y-140534761D01*
X76622380Y-140439523D01*
X76622380Y-139582380D01*
X77527142Y-140534761D02*
X77431904Y-140582380D01*
X77241428Y-140582380D01*
X77146190Y-140534761D01*
X77098571Y-140439523D01*
X77098571Y-140058571D01*
X77146190Y-139963333D01*
X77241428Y-139915714D01*
X77431904Y-139915714D01*
X77527142Y-139963333D01*
X77574761Y-140058571D01*
X77574761Y-140153809D01*
X77098571Y-140249047D01*
X78003333Y-139915714D02*
X78003333Y-140582380D01*
X78003333Y-140010952D02*
X78050952Y-139963333D01*
X78146190Y-139915714D01*
X78289047Y-139915714D01*
X78384285Y-139963333D01*
X78431904Y-140058571D01*
X78431904Y-140582380D01*
X79431904Y-140582380D02*
X78860476Y-140582380D01*
X79146190Y-140582380D02*
X79146190Y-139582380D01*
X79050952Y-139725238D01*
X78955714Y-139820476D01*
X78860476Y-139868095D01*
%TO.C,Spuelen1*%
X56421904Y-140534761D02*
X56564761Y-140582380D01*
X56802857Y-140582380D01*
X56898095Y-140534761D01*
X56945714Y-140487142D01*
X56993333Y-140391904D01*
X56993333Y-140296666D01*
X56945714Y-140201428D01*
X56898095Y-140153809D01*
X56802857Y-140106190D01*
X56612380Y-140058571D01*
X56517142Y-140010952D01*
X56469523Y-139963333D01*
X56421904Y-139868095D01*
X56421904Y-139772857D01*
X56469523Y-139677619D01*
X56517142Y-139630000D01*
X56612380Y-139582380D01*
X56850476Y-139582380D01*
X56993333Y-139630000D01*
X57421904Y-139915714D02*
X57421904Y-140915714D01*
X57421904Y-139963333D02*
X57517142Y-139915714D01*
X57707619Y-139915714D01*
X57802857Y-139963333D01*
X57850476Y-140010952D01*
X57898095Y-140106190D01*
X57898095Y-140391904D01*
X57850476Y-140487142D01*
X57802857Y-140534761D01*
X57707619Y-140582380D01*
X57517142Y-140582380D01*
X57421904Y-140534761D01*
X58755238Y-139915714D02*
X58755238Y-140582380D01*
X58326666Y-139915714D02*
X58326666Y-140439523D01*
X58374285Y-140534761D01*
X58469523Y-140582380D01*
X58612380Y-140582380D01*
X58707619Y-140534761D01*
X58755238Y-140487142D01*
X59612380Y-140534761D02*
X59517142Y-140582380D01*
X59326666Y-140582380D01*
X59231428Y-140534761D01*
X59183809Y-140439523D01*
X59183809Y-140058571D01*
X59231428Y-139963333D01*
X59326666Y-139915714D01*
X59517142Y-139915714D01*
X59612380Y-139963333D01*
X59660000Y-140058571D01*
X59660000Y-140153809D01*
X59183809Y-140249047D01*
X60231428Y-140582380D02*
X60136190Y-140534761D01*
X60088571Y-140439523D01*
X60088571Y-139582380D01*
X60993333Y-140534761D02*
X60898095Y-140582380D01*
X60707619Y-140582380D01*
X60612380Y-140534761D01*
X60564761Y-140439523D01*
X60564761Y-140058571D01*
X60612380Y-139963333D01*
X60707619Y-139915714D01*
X60898095Y-139915714D01*
X60993333Y-139963333D01*
X61040952Y-140058571D01*
X61040952Y-140153809D01*
X60564761Y-140249047D01*
X61469523Y-139915714D02*
X61469523Y-140582380D01*
X61469523Y-140010952D02*
X61517142Y-139963333D01*
X61612380Y-139915714D01*
X61755238Y-139915714D01*
X61850476Y-139963333D01*
X61898095Y-140058571D01*
X61898095Y-140582380D01*
X62898095Y-140582380D02*
X62326666Y-140582380D01*
X62612380Y-140582380D02*
X62612380Y-139582380D01*
X62517142Y-139725238D01*
X62421904Y-139820476D01*
X62326666Y-139868095D01*
%TO.C,MilchTemp1*%
X39030952Y-140582380D02*
X39030952Y-139582380D01*
X39364285Y-140296666D01*
X39697619Y-139582380D01*
X39697619Y-140582380D01*
X40173809Y-140582380D02*
X40173809Y-139915714D01*
X40173809Y-139582380D02*
X40126190Y-139630000D01*
X40173809Y-139677619D01*
X40221428Y-139630000D01*
X40173809Y-139582380D01*
X40173809Y-139677619D01*
X40792857Y-140582380D02*
X40697619Y-140534761D01*
X40650000Y-140439523D01*
X40650000Y-139582380D01*
X41602380Y-140534761D02*
X41507142Y-140582380D01*
X41316666Y-140582380D01*
X41221428Y-140534761D01*
X41173809Y-140487142D01*
X41126190Y-140391904D01*
X41126190Y-140106190D01*
X41173809Y-140010952D01*
X41221428Y-139963333D01*
X41316666Y-139915714D01*
X41507142Y-139915714D01*
X41602380Y-139963333D01*
X42030952Y-140582380D02*
X42030952Y-139582380D01*
X42459523Y-140582380D02*
X42459523Y-140058571D01*
X42411904Y-139963333D01*
X42316666Y-139915714D01*
X42173809Y-139915714D01*
X42078571Y-139963333D01*
X42030952Y-140010952D01*
X42792857Y-139582380D02*
X43364285Y-139582380D01*
X43078571Y-140582380D02*
X43078571Y-139582380D01*
X44078571Y-140534761D02*
X43983333Y-140582380D01*
X43792857Y-140582380D01*
X43697619Y-140534761D01*
X43650000Y-140439523D01*
X43650000Y-140058571D01*
X43697619Y-139963333D01*
X43792857Y-139915714D01*
X43983333Y-139915714D01*
X44078571Y-139963333D01*
X44126190Y-140058571D01*
X44126190Y-140153809D01*
X43650000Y-140249047D01*
X44554761Y-140582380D02*
X44554761Y-139915714D01*
X44554761Y-140010952D02*
X44602380Y-139963333D01*
X44697619Y-139915714D01*
X44840476Y-139915714D01*
X44935714Y-139963333D01*
X44983333Y-140058571D01*
X44983333Y-140582380D01*
X44983333Y-140058571D02*
X45030952Y-139963333D01*
X45126190Y-139915714D01*
X45269047Y-139915714D01*
X45364285Y-139963333D01*
X45411904Y-140058571D01*
X45411904Y-140582380D01*
X45888095Y-139915714D02*
X45888095Y-140915714D01*
X45888095Y-139963333D02*
X45983333Y-139915714D01*
X46173809Y-139915714D01*
X46269047Y-139963333D01*
X46316666Y-140010952D01*
X46364285Y-140106190D01*
X46364285Y-140391904D01*
X46316666Y-140487142D01*
X46269047Y-140534761D01*
X46173809Y-140582380D01*
X45983333Y-140582380D01*
X45888095Y-140534761D01*
X47316666Y-140582380D02*
X46745238Y-140582380D01*
X47030952Y-140582380D02*
X47030952Y-139582380D01*
X46935714Y-139725238D01*
X46840476Y-139820476D01*
X46745238Y-139868095D01*
%TO.C,Piezo1*%
X86628095Y-150732380D02*
X86628095Y-149732380D01*
X87009047Y-149732380D01*
X87104285Y-149780000D01*
X87151904Y-149827619D01*
X87199523Y-149922857D01*
X87199523Y-150065714D01*
X87151904Y-150160952D01*
X87104285Y-150208571D01*
X87009047Y-150256190D01*
X86628095Y-150256190D01*
X87628095Y-150732380D02*
X87628095Y-150065714D01*
X87628095Y-149732380D02*
X87580476Y-149780000D01*
X87628095Y-149827619D01*
X87675714Y-149780000D01*
X87628095Y-149732380D01*
X87628095Y-149827619D01*
X88485238Y-150684761D02*
X88390000Y-150732380D01*
X88199523Y-150732380D01*
X88104285Y-150684761D01*
X88056666Y-150589523D01*
X88056666Y-150208571D01*
X88104285Y-150113333D01*
X88199523Y-150065714D01*
X88390000Y-150065714D01*
X88485238Y-150113333D01*
X88532857Y-150208571D01*
X88532857Y-150303809D01*
X88056666Y-150399047D01*
X88866190Y-150065714D02*
X89390000Y-150065714D01*
X88866190Y-150732380D01*
X89390000Y-150732380D01*
X89913809Y-150732380D02*
X89818571Y-150684761D01*
X89770952Y-150637142D01*
X89723333Y-150541904D01*
X89723333Y-150256190D01*
X89770952Y-150160952D01*
X89818571Y-150113333D01*
X89913809Y-150065714D01*
X90056666Y-150065714D01*
X90151904Y-150113333D01*
X90199523Y-150160952D01*
X90247142Y-150256190D01*
X90247142Y-150541904D01*
X90199523Y-150637142D01*
X90151904Y-150684761D01*
X90056666Y-150732380D01*
X89913809Y-150732380D01*
X91199523Y-150732380D02*
X90628095Y-150732380D01*
X90913809Y-150732380D02*
X90913809Y-149732380D01*
X90818571Y-149875238D01*
X90723333Y-149970476D01*
X90628095Y-150018095D01*
X84699047Y-155011428D02*
X85460952Y-155011428D01*
X85080000Y-155392380D02*
X85080000Y-154630476D01*
%TO.C,DS18B20*%
X73057142Y-153102380D02*
X73057142Y-152102380D01*
X73295238Y-152102380D01*
X73438095Y-152150000D01*
X73533333Y-152245238D01*
X73580952Y-152340476D01*
X73628571Y-152530952D01*
X73628571Y-152673809D01*
X73580952Y-152864285D01*
X73533333Y-152959523D01*
X73438095Y-153054761D01*
X73295238Y-153102380D01*
X73057142Y-153102380D01*
X74009523Y-153054761D02*
X74152380Y-153102380D01*
X74390476Y-153102380D01*
X74485714Y-153054761D01*
X74533333Y-153007142D01*
X74580952Y-152911904D01*
X74580952Y-152816666D01*
X74533333Y-152721428D01*
X74485714Y-152673809D01*
X74390476Y-152626190D01*
X74200000Y-152578571D01*
X74104761Y-152530952D01*
X74057142Y-152483333D01*
X74009523Y-152388095D01*
X74009523Y-152292857D01*
X74057142Y-152197619D01*
X74104761Y-152150000D01*
X74200000Y-152102380D01*
X74438095Y-152102380D01*
X74580952Y-152150000D01*
X75533333Y-153102380D02*
X74961904Y-153102380D01*
X75247619Y-153102380D02*
X75247619Y-152102380D01*
X75152380Y-152245238D01*
X75057142Y-152340476D01*
X74961904Y-152388095D01*
X76104761Y-152530952D02*
X76009523Y-152483333D01*
X75961904Y-152435714D01*
X75914285Y-152340476D01*
X75914285Y-152292857D01*
X75961904Y-152197619D01*
X76009523Y-152150000D01*
X76104761Y-152102380D01*
X76295238Y-152102380D01*
X76390476Y-152150000D01*
X76438095Y-152197619D01*
X76485714Y-152292857D01*
X76485714Y-152340476D01*
X76438095Y-152435714D01*
X76390476Y-152483333D01*
X76295238Y-152530952D01*
X76104761Y-152530952D01*
X76009523Y-152578571D01*
X75961904Y-152626190D01*
X75914285Y-152721428D01*
X75914285Y-152911904D01*
X75961904Y-153007142D01*
X76009523Y-153054761D01*
X76104761Y-153102380D01*
X76295238Y-153102380D01*
X76390476Y-153054761D01*
X76438095Y-153007142D01*
X76485714Y-152911904D01*
X76485714Y-152721428D01*
X76438095Y-152626190D01*
X76390476Y-152578571D01*
X76295238Y-152530952D01*
X77247619Y-152578571D02*
X77390476Y-152626190D01*
X77438095Y-152673809D01*
X77485714Y-152769047D01*
X77485714Y-152911904D01*
X77438095Y-153007142D01*
X77390476Y-153054761D01*
X77295238Y-153102380D01*
X76914285Y-153102380D01*
X76914285Y-152102380D01*
X77247619Y-152102380D01*
X77342857Y-152150000D01*
X77390476Y-152197619D01*
X77438095Y-152292857D01*
X77438095Y-152388095D01*
X77390476Y-152483333D01*
X77342857Y-152530952D01*
X77247619Y-152578571D01*
X76914285Y-152578571D01*
X77866666Y-152197619D02*
X77914285Y-152150000D01*
X78009523Y-152102380D01*
X78247619Y-152102380D01*
X78342857Y-152150000D01*
X78390476Y-152197619D01*
X78438095Y-152292857D01*
X78438095Y-152388095D01*
X78390476Y-152530952D01*
X77819047Y-153102380D01*
X78438095Y-153102380D01*
X79057142Y-152102380D02*
X79152380Y-152102380D01*
X79247619Y-152150000D01*
X79295238Y-152197619D01*
X79342857Y-152292857D01*
X79390476Y-152483333D01*
X79390476Y-152721428D01*
X79342857Y-152911904D01*
X79295238Y-153007142D01*
X79247619Y-153054761D01*
X79152380Y-153102380D01*
X79057142Y-153102380D01*
X78961904Y-153054761D01*
X78914285Y-153007142D01*
X78866666Y-152911904D01*
X78819047Y-152721428D01*
X78819047Y-152483333D01*
X78866666Y-152292857D01*
X78914285Y-152197619D01*
X78961904Y-152150000D01*
X79057142Y-152102380D01*
%TO.C,WeMosD1Mini1*%
X20712380Y-185988095D02*
X21712380Y-185750000D01*
X20998095Y-185559523D01*
X21712380Y-185369047D01*
X20712380Y-185130952D01*
X21664761Y-184369047D02*
X21712380Y-184464285D01*
X21712380Y-184654761D01*
X21664761Y-184750000D01*
X21569523Y-184797619D01*
X21188571Y-184797619D01*
X21093333Y-184750000D01*
X21045714Y-184654761D01*
X21045714Y-184464285D01*
X21093333Y-184369047D01*
X21188571Y-184321428D01*
X21283809Y-184321428D01*
X21379047Y-184797619D01*
X21712380Y-183892857D02*
X20712380Y-183892857D01*
X21426666Y-183559523D01*
X20712380Y-183226190D01*
X21712380Y-183226190D01*
X21712380Y-182607142D02*
X21664761Y-182702380D01*
X21617142Y-182750000D01*
X21521904Y-182797619D01*
X21236190Y-182797619D01*
X21140952Y-182750000D01*
X21093333Y-182702380D01*
X21045714Y-182607142D01*
X21045714Y-182464285D01*
X21093333Y-182369047D01*
X21140952Y-182321428D01*
X21236190Y-182273809D01*
X21521904Y-182273809D01*
X21617142Y-182321428D01*
X21664761Y-182369047D01*
X21712380Y-182464285D01*
X21712380Y-182607142D01*
X21664761Y-181892857D02*
X21712380Y-181797619D01*
X21712380Y-181607142D01*
X21664761Y-181511904D01*
X21569523Y-181464285D01*
X21521904Y-181464285D01*
X21426666Y-181511904D01*
X21379047Y-181607142D01*
X21379047Y-181750000D01*
X21331428Y-181845238D01*
X21236190Y-181892857D01*
X21188571Y-181892857D01*
X21093333Y-181845238D01*
X21045714Y-181750000D01*
X21045714Y-181607142D01*
X21093333Y-181511904D01*
X21712380Y-181035714D02*
X20712380Y-181035714D01*
X20712380Y-180797619D01*
X20760000Y-180654761D01*
X20855238Y-180559523D01*
X20950476Y-180511904D01*
X21140952Y-180464285D01*
X21283809Y-180464285D01*
X21474285Y-180511904D01*
X21569523Y-180559523D01*
X21664761Y-180654761D01*
X21712380Y-180797619D01*
X21712380Y-181035714D01*
X21712380Y-179511904D02*
X21712380Y-180083333D01*
X21712380Y-179797619D02*
X20712380Y-179797619D01*
X20855238Y-179892857D01*
X20950476Y-179988095D01*
X20998095Y-180083333D01*
X21712380Y-179083333D02*
X20712380Y-179083333D01*
X21426666Y-178750000D01*
X20712380Y-178416666D01*
X21712380Y-178416666D01*
X21712380Y-177940476D02*
X21045714Y-177940476D01*
X20712380Y-177940476D02*
X20760000Y-177988095D01*
X20807619Y-177940476D01*
X20760000Y-177892857D01*
X20712380Y-177940476D01*
X20807619Y-177940476D01*
X21045714Y-177464285D02*
X21712380Y-177464285D01*
X21140952Y-177464285D02*
X21093333Y-177416666D01*
X21045714Y-177321428D01*
X21045714Y-177178571D01*
X21093333Y-177083333D01*
X21188571Y-177035714D01*
X21712380Y-177035714D01*
X21712380Y-176559523D02*
X21045714Y-176559523D01*
X20712380Y-176559523D02*
X20760000Y-176607142D01*
X20807619Y-176559523D01*
X20760000Y-176511904D01*
X20712380Y-176559523D01*
X20807619Y-176559523D01*
X21712380Y-175559523D02*
X21712380Y-176130952D01*
X21712380Y-175845238D02*
X20712380Y-175845238D01*
X20855238Y-175940476D01*
X20950476Y-176035714D01*
X20998095Y-176130952D01*
%TD*%
M02*
