M48
; DRILL file {KiCad (5.1.7)-1} date 05/08/21 17:48:33
; FORMAT={-:-/ absolute / inch / decimal}
; #@! TF.CreationDate,2021-05-08T17:48:33+02:00
; #@! TF.GenerationSoftware,Kicad,Pcbnew,(5.1.7)-1
FMAT,2
INCH
T1C0.0157
T2C0.0276
T3C0.0295
T4C0.0315
T5C0.0374
T6C0.0394
T7C0.0598
T8C0.1969
%
G90
G05
T1
X1.1508Y-6.8008
X1.4Y-6.15
T2
X2.4Y-6.25
X2.7Y-6.25
X1.7Y-6.05
X2.0Y-6.05
X2.3Y-6.05
X2.6Y-6.05
T3
X2.95Y-6.15
X3.0Y-6.15
X3.05Y-6.15
T4
X2.45Y-6.55
X2.45Y-6.85
X2.55Y-6.55
X2.55Y-6.85
X2.65Y-6.55
X2.65Y-6.85
X2.75Y-6.55
X2.75Y-6.85
X2.85Y-6.55
X2.85Y-6.85
X2.95Y-6.55
X2.95Y-6.85
X3.05Y-6.55
X3.05Y-6.85
X3.15Y-6.55
X3.15Y-6.85
X3.25Y-6.55
X3.25Y-6.85
X3.35Y-6.55
X3.35Y-6.85
X3.45Y-6.55
X3.45Y-6.85
X3.55Y-6.55
X3.55Y-6.85
X3.65Y-6.55
X3.65Y-6.85
X3.75Y-6.55
X3.75Y-6.85
T5
X0.95Y-6.0
X1.0484Y-6.0
X1.1469Y-6.0
X1.2453Y-6.0
X2.5Y-7.1
X2.5984Y-7.1
X2.6969Y-7.1
X2.7953Y-7.1
X2.8937Y-7.1
X2.9921Y-7.1
X3.0906Y-7.1
X3.189Y-7.1
X3.2874Y-7.1
X3.3858Y-7.1
X3.4843Y-7.1
X3.5827Y-7.1
X3.6811Y-7.1
X3.7795Y-7.1
X3.878Y-7.1
X0.95Y-5.7
X1.0484Y-5.7
X1.1469Y-5.7
T6
X1.2Y-6.25
X1.2Y-7.15
X1.3Y-6.25
X1.3Y-7.15
X1.4Y-6.25
X1.4Y-7.15
X1.5Y-6.25
X1.5Y-7.15
X1.6Y-6.25
X1.6Y-7.15
X1.7Y-6.25
X1.7Y-7.15
X1.8Y-6.25
X1.8Y-7.15
X1.9Y-6.25
X1.9Y-7.15
X3.35Y-6.2
X3.6492Y-6.2
T7
X2.8Y-5.7
X3.0Y-5.7
X3.2Y-5.7
X3.45Y-5.7
X3.65Y-5.7
X2.15Y-5.7
X2.35Y-5.7
X2.55Y-5.7
X1.5Y-5.7
X1.7Y-5.7
X1.9Y-5.7
T8
X0.7Y-5.3
X0.7Y-5.3
X0.7Y-7.45
X0.7Y-7.45
X4.25Y-5.3
X4.25Y-5.3
X4.25Y-7.45
X4.25Y-7.45
T0
M30
