%TF.GenerationSoftware,KiCad,Pcbnew,(5.1.7)-1*%
%TF.CreationDate,2021-05-08T17:47:48+02:00*%
%TF.ProjectId,tankwaechter,74616e6b-7761-4656-9368-7465722e6b69,rev?*%
%TF.SameCoordinates,Original*%
%TF.FileFunction,Copper,L1,Top*%
%TF.FilePolarity,Positive*%
%FSLAX46Y46*%
G04 Gerber Fmt 4.6, Leading zero omitted, Abs format (unit mm)*
G04 Created by KiCad (PCBNEW (5.1.7)-1) date 2021-05-08 17:47:48*
%MOMM*%
%LPD*%
G01*
G04 APERTURE LIST*
%TA.AperFunction,NonConductor*%
%ADD10C,0.300000*%
%TD*%
%TA.AperFunction,EtchedComponent*%
%ADD11C,0.010000*%
%TD*%
%TA.AperFunction,ComponentPad*%
%ADD12O,1.600000X1.600000*%
%TD*%
%TA.AperFunction,ComponentPad*%
%ADD13R,1.600000X1.600000*%
%TD*%
%TA.AperFunction,ComponentPad*%
%ADD14O,1.400000X1.400000*%
%TD*%
%TA.AperFunction,ComponentPad*%
%ADD15C,1.400000*%
%TD*%
%TA.AperFunction,ComponentPad*%
%ADD16C,3.000000*%
%TD*%
%TA.AperFunction,ComponentPad*%
%ADD17R,3.000000X3.000000*%
%TD*%
%TA.AperFunction,ComponentPad*%
%ADD18O,1.700000X1.950000*%
%TD*%
%TA.AperFunction,ComponentPad*%
%ADD19C,2.000000*%
%TD*%
%TA.AperFunction,ComponentPad*%
%ADD20R,2.000000X2.000000*%
%TD*%
%TA.AperFunction,ComponentPad*%
%ADD21R,1.050000X1.500000*%
%TD*%
%TA.AperFunction,ComponentPad*%
%ADD22O,1.050000X1.500000*%
%TD*%
%TA.AperFunction,ComponentPad*%
%ADD23O,1.600000X2.000000*%
%TD*%
%TA.AperFunction,ViaPad*%
%ADD24C,5.500000*%
%TD*%
%TA.AperFunction,ViaPad*%
%ADD25C,7.000000*%
%TD*%
%TA.AperFunction,ViaPad*%
%ADD26C,0.800000*%
%TD*%
%TA.AperFunction,Conductor*%
%ADD27C,0.500000*%
%TD*%
G04 APERTURE END LIST*
D10*
X84518571Y-155047142D02*
X85661428Y-155047142D01*
X85090000Y-155618571D02*
X85090000Y-154475714D01*
D11*
%TO.C,REF\u002A\u002A*%
G36*
X104148931Y-160734186D02*
G01*
X104593555Y-160650365D01*
X104721053Y-160341080D01*
X104848551Y-160031794D01*
X104596246Y-159660754D01*
X104525996Y-159556843D01*
X104463272Y-159462913D01*
X104410938Y-159383348D01*
X104371857Y-159322530D01*
X104348893Y-159284843D01*
X104343942Y-159274579D01*
X104356676Y-159256090D01*
X104391882Y-159216580D01*
X104445062Y-159160478D01*
X104511718Y-159092213D01*
X104587354Y-159016214D01*
X104667472Y-158936908D01*
X104747574Y-158858725D01*
X104823164Y-158786093D01*
X104889745Y-158723441D01*
X104942818Y-158675197D01*
X104977887Y-158645790D01*
X104989623Y-158638759D01*
X105011260Y-158648877D01*
X105058662Y-158677241D01*
X105127193Y-158720871D01*
X105212215Y-158776782D01*
X105309093Y-158841994D01*
X105364350Y-158879781D01*
X105465248Y-158948657D01*
X105556299Y-159009860D01*
X105632970Y-159060422D01*
X105690728Y-159097372D01*
X105725043Y-159117742D01*
X105732254Y-159120803D01*
X105752748Y-159113864D01*
X105800513Y-159094949D01*
X105868832Y-159066913D01*
X105950989Y-159032609D01*
X106040270Y-158994891D01*
X106129958Y-158956613D01*
X106213338Y-158920630D01*
X106283694Y-158889794D01*
X106334310Y-158866961D01*
X106358471Y-158854983D01*
X106359422Y-158854276D01*
X106364036Y-158835469D01*
X106374328Y-158785382D01*
X106389287Y-158709207D01*
X106407901Y-158612135D01*
X106429159Y-158499357D01*
X106441418Y-158433558D01*
X106464362Y-158313050D01*
X106486195Y-158204203D01*
X106505722Y-158112524D01*
X106521748Y-158043519D01*
X106533079Y-158002696D01*
X106536674Y-157994489D01*
X106561006Y-157986452D01*
X106615959Y-157979967D01*
X106695108Y-157975030D01*
X106792026Y-157971636D01*
X106900287Y-157969782D01*
X107013465Y-157969462D01*
X107125135Y-157970673D01*
X107228868Y-157973410D01*
X107318241Y-157977669D01*
X107386826Y-157983445D01*
X107428197Y-157990733D01*
X107436810Y-157995105D01*
X107447133Y-158021236D01*
X107461892Y-158076607D01*
X107479352Y-158153893D01*
X107497780Y-158245770D01*
X107503741Y-158277842D01*
X107532066Y-158432476D01*
X107554876Y-158554625D01*
X107573080Y-158648327D01*
X107587583Y-158717616D01*
X107599292Y-158766529D01*
X107609115Y-158799103D01*
X107617956Y-158819372D01*
X107626724Y-158831374D01*
X107628457Y-158833053D01*
X107656371Y-158849816D01*
X107710695Y-158875386D01*
X107784777Y-158907212D01*
X107871965Y-158942740D01*
X107965608Y-158979417D01*
X108059052Y-159014689D01*
X108145647Y-159046004D01*
X108218740Y-159070807D01*
X108271678Y-159086546D01*
X108297811Y-159090668D01*
X108298726Y-159090324D01*
X108320086Y-159076359D01*
X108367084Y-159044678D01*
X108434827Y-158998609D01*
X108518423Y-158941482D01*
X108612982Y-158876627D01*
X108639854Y-158858157D01*
X108737275Y-158792301D01*
X108826163Y-158734350D01*
X108901412Y-158687462D01*
X108957920Y-158654793D01*
X108990581Y-158639500D01*
X108994593Y-158638759D01*
X109015684Y-158651608D01*
X109057464Y-158687112D01*
X109115445Y-158740707D01*
X109185135Y-158807829D01*
X109262045Y-158883913D01*
X109341683Y-158964396D01*
X109419561Y-159044713D01*
X109491186Y-159120301D01*
X109552070Y-159186595D01*
X109597721Y-159239031D01*
X109623650Y-159273045D01*
X109627883Y-159282455D01*
X109617912Y-159304357D01*
X109591020Y-159349200D01*
X109551736Y-159409679D01*
X109520117Y-159456211D01*
X109462098Y-159540525D01*
X109393784Y-159640374D01*
X109325579Y-159740527D01*
X109289075Y-159794373D01*
X109165800Y-159976629D01*
X109248520Y-160129619D01*
X109284759Y-160199318D01*
X109312926Y-160258586D01*
X109328991Y-160298689D01*
X109331226Y-160308897D01*
X109314722Y-160321171D01*
X109268082Y-160345387D01*
X109195609Y-160379737D01*
X109101606Y-160422412D01*
X108990374Y-160471606D01*
X108866215Y-160525510D01*
X108733432Y-160582316D01*
X108596327Y-160640218D01*
X108459202Y-160697407D01*
X108326358Y-160752076D01*
X108202098Y-160802416D01*
X108090725Y-160846620D01*
X107996539Y-160882881D01*
X107923844Y-160909391D01*
X107876941Y-160924342D01*
X107860833Y-160926746D01*
X107840286Y-160907689D01*
X107806933Y-160865964D01*
X107767702Y-160810294D01*
X107764599Y-160805622D01*
X107649423Y-160661736D01*
X107515053Y-160545717D01*
X107365784Y-160458570D01*
X107205913Y-160401301D01*
X107039737Y-160374914D01*
X106871552Y-160380415D01*
X106705655Y-160418810D01*
X106546342Y-160491105D01*
X106511487Y-160512374D01*
X106370737Y-160623004D01*
X106257714Y-160753698D01*
X106173003Y-160899936D01*
X106117194Y-161057192D01*
X106090874Y-161220943D01*
X106094630Y-161386667D01*
X106129050Y-161549838D01*
X106194723Y-161705935D01*
X106292235Y-161850433D01*
X106331813Y-161895131D01*
X106455703Y-162008888D01*
X106586124Y-162091782D01*
X106732315Y-162148644D01*
X106877088Y-162180313D01*
X107039860Y-162188131D01*
X107203440Y-162162062D01*
X107362298Y-162104755D01*
X107510906Y-162018856D01*
X107643735Y-161907014D01*
X107755256Y-161771877D01*
X107767011Y-161754117D01*
X107805508Y-161697850D01*
X107838863Y-161655077D01*
X107860160Y-161634628D01*
X107860833Y-161634331D01*
X107883871Y-161638721D01*
X107936157Y-161656124D01*
X108013390Y-161684732D01*
X108111268Y-161722735D01*
X108225491Y-161768326D01*
X108351758Y-161819697D01*
X108485767Y-161875038D01*
X108623218Y-161932542D01*
X108759808Y-161990399D01*
X108891237Y-162046802D01*
X109013205Y-162099942D01*
X109121409Y-162148010D01*
X109211549Y-162189199D01*
X109279323Y-162221699D01*
X109320430Y-162243703D01*
X109331226Y-162252564D01*
X109322819Y-162279640D01*
X109300272Y-162330303D01*
X109267613Y-162395817D01*
X109248520Y-162431841D01*
X109165800Y-162584832D01*
X109289075Y-162767088D01*
X109352228Y-162860125D01*
X109421727Y-162961985D01*
X109487165Y-163057438D01*
X109520117Y-163105250D01*
X109565273Y-163172495D01*
X109601057Y-163229436D01*
X109622938Y-163268646D01*
X109627563Y-163281381D01*
X109615085Y-163299917D01*
X109580252Y-163340941D01*
X109526678Y-163400475D01*
X109457983Y-163474542D01*
X109377781Y-163559165D01*
X109326286Y-163612685D01*
X109234286Y-163706319D01*
X109151999Y-163787241D01*
X109082945Y-163852177D01*
X109030644Y-163897858D01*
X108998616Y-163921011D01*
X108992116Y-163923232D01*
X108967394Y-163912924D01*
X108917405Y-163884439D01*
X108847212Y-163840937D01*
X108761875Y-163785577D01*
X108666456Y-163721520D01*
X108639854Y-163703303D01*
X108543167Y-163636927D01*
X108456117Y-163577378D01*
X108383595Y-163527984D01*
X108330493Y-163492075D01*
X108301703Y-163472981D01*
X108298726Y-163471136D01*
X108275782Y-163473895D01*
X108225336Y-163488538D01*
X108154041Y-163512513D01*
X108068547Y-163543266D01*
X107975507Y-163578244D01*
X107881574Y-163614893D01*
X107793399Y-163650661D01*
X107717634Y-163682994D01*
X107660931Y-163709338D01*
X107629943Y-163727142D01*
X107628457Y-163728407D01*
X107619601Y-163739294D01*
X107610843Y-163757682D01*
X107601277Y-163787606D01*
X107589996Y-163833103D01*
X107576093Y-163898209D01*
X107558663Y-163986961D01*
X107536798Y-164103393D01*
X107509591Y-164251542D01*
X107503741Y-164283618D01*
X107485374Y-164378686D01*
X107467405Y-164461565D01*
X107451569Y-164524930D01*
X107439600Y-164561458D01*
X107436810Y-164566356D01*
X107412072Y-164574427D01*
X107356790Y-164580987D01*
X107277389Y-164586033D01*
X107180296Y-164589559D01*
X107071938Y-164591561D01*
X106958740Y-164592036D01*
X106847128Y-164590977D01*
X106743529Y-164588382D01*
X106654368Y-164584246D01*
X106586072Y-164578563D01*
X106545066Y-164571331D01*
X106536674Y-164566971D01*
X106528208Y-164542698D01*
X106514435Y-164487426D01*
X106496550Y-164406662D01*
X106475748Y-164305912D01*
X106453223Y-164190683D01*
X106441418Y-164127902D01*
X106419151Y-164008787D01*
X106398979Y-163902565D01*
X106381915Y-163814427D01*
X106368969Y-163749566D01*
X106361155Y-163713174D01*
X106359422Y-163707184D01*
X106339890Y-163697061D01*
X106292843Y-163675662D01*
X106225003Y-163645839D01*
X106143091Y-163610445D01*
X106053828Y-163572332D01*
X105963935Y-163534353D01*
X105880135Y-163499360D01*
X105809147Y-163470206D01*
X105757694Y-163449743D01*
X105732497Y-163440823D01*
X105731396Y-163440657D01*
X105711519Y-163450769D01*
X105665777Y-163479117D01*
X105598717Y-163522723D01*
X105514884Y-163578606D01*
X105418826Y-163643787D01*
X105363650Y-163681679D01*
X105262481Y-163750725D01*
X105170630Y-163812050D01*
X105092744Y-163862663D01*
X105033469Y-163899571D01*
X104997451Y-163919782D01*
X104989377Y-163922701D01*
X104970584Y-163910153D01*
X104930457Y-163875463D01*
X104873493Y-163823063D01*
X104804185Y-163757384D01*
X104727031Y-163682856D01*
X104646525Y-163603913D01*
X104567163Y-163524983D01*
X104493440Y-163450500D01*
X104429852Y-163384894D01*
X104380894Y-163332596D01*
X104351061Y-163298039D01*
X104343942Y-163286478D01*
X104353953Y-163267654D01*
X104382078Y-163222631D01*
X104425454Y-163155787D01*
X104481218Y-163071499D01*
X104546506Y-162974144D01*
X104596246Y-162900707D01*
X104848551Y-162529667D01*
X104593555Y-161911095D01*
X104148931Y-161827275D01*
X103704307Y-161743454D01*
X103704307Y-160818006D01*
X104148931Y-160734186D01*
G37*
X104148931Y-160734186D02*
X104593555Y-160650365D01*
X104721053Y-160341080D01*
X104848551Y-160031794D01*
X104596246Y-159660754D01*
X104525996Y-159556843D01*
X104463272Y-159462913D01*
X104410938Y-159383348D01*
X104371857Y-159322530D01*
X104348893Y-159284843D01*
X104343942Y-159274579D01*
X104356676Y-159256090D01*
X104391882Y-159216580D01*
X104445062Y-159160478D01*
X104511718Y-159092213D01*
X104587354Y-159016214D01*
X104667472Y-158936908D01*
X104747574Y-158858725D01*
X104823164Y-158786093D01*
X104889745Y-158723441D01*
X104942818Y-158675197D01*
X104977887Y-158645790D01*
X104989623Y-158638759D01*
X105011260Y-158648877D01*
X105058662Y-158677241D01*
X105127193Y-158720871D01*
X105212215Y-158776782D01*
X105309093Y-158841994D01*
X105364350Y-158879781D01*
X105465248Y-158948657D01*
X105556299Y-159009860D01*
X105632970Y-159060422D01*
X105690728Y-159097372D01*
X105725043Y-159117742D01*
X105732254Y-159120803D01*
X105752748Y-159113864D01*
X105800513Y-159094949D01*
X105868832Y-159066913D01*
X105950989Y-159032609D01*
X106040270Y-158994891D01*
X106129958Y-158956613D01*
X106213338Y-158920630D01*
X106283694Y-158889794D01*
X106334310Y-158866961D01*
X106358471Y-158854983D01*
X106359422Y-158854276D01*
X106364036Y-158835469D01*
X106374328Y-158785382D01*
X106389287Y-158709207D01*
X106407901Y-158612135D01*
X106429159Y-158499357D01*
X106441418Y-158433558D01*
X106464362Y-158313050D01*
X106486195Y-158204203D01*
X106505722Y-158112524D01*
X106521748Y-158043519D01*
X106533079Y-158002696D01*
X106536674Y-157994489D01*
X106561006Y-157986452D01*
X106615959Y-157979967D01*
X106695108Y-157975030D01*
X106792026Y-157971636D01*
X106900287Y-157969782D01*
X107013465Y-157969462D01*
X107125135Y-157970673D01*
X107228868Y-157973410D01*
X107318241Y-157977669D01*
X107386826Y-157983445D01*
X107428197Y-157990733D01*
X107436810Y-157995105D01*
X107447133Y-158021236D01*
X107461892Y-158076607D01*
X107479352Y-158153893D01*
X107497780Y-158245770D01*
X107503741Y-158277842D01*
X107532066Y-158432476D01*
X107554876Y-158554625D01*
X107573080Y-158648327D01*
X107587583Y-158717616D01*
X107599292Y-158766529D01*
X107609115Y-158799103D01*
X107617956Y-158819372D01*
X107626724Y-158831374D01*
X107628457Y-158833053D01*
X107656371Y-158849816D01*
X107710695Y-158875386D01*
X107784777Y-158907212D01*
X107871965Y-158942740D01*
X107965608Y-158979417D01*
X108059052Y-159014689D01*
X108145647Y-159046004D01*
X108218740Y-159070807D01*
X108271678Y-159086546D01*
X108297811Y-159090668D01*
X108298726Y-159090324D01*
X108320086Y-159076359D01*
X108367084Y-159044678D01*
X108434827Y-158998609D01*
X108518423Y-158941482D01*
X108612982Y-158876627D01*
X108639854Y-158858157D01*
X108737275Y-158792301D01*
X108826163Y-158734350D01*
X108901412Y-158687462D01*
X108957920Y-158654793D01*
X108990581Y-158639500D01*
X108994593Y-158638759D01*
X109015684Y-158651608D01*
X109057464Y-158687112D01*
X109115445Y-158740707D01*
X109185135Y-158807829D01*
X109262045Y-158883913D01*
X109341683Y-158964396D01*
X109419561Y-159044713D01*
X109491186Y-159120301D01*
X109552070Y-159186595D01*
X109597721Y-159239031D01*
X109623650Y-159273045D01*
X109627883Y-159282455D01*
X109617912Y-159304357D01*
X109591020Y-159349200D01*
X109551736Y-159409679D01*
X109520117Y-159456211D01*
X109462098Y-159540525D01*
X109393784Y-159640374D01*
X109325579Y-159740527D01*
X109289075Y-159794373D01*
X109165800Y-159976629D01*
X109248520Y-160129619D01*
X109284759Y-160199318D01*
X109312926Y-160258586D01*
X109328991Y-160298689D01*
X109331226Y-160308897D01*
X109314722Y-160321171D01*
X109268082Y-160345387D01*
X109195609Y-160379737D01*
X109101606Y-160422412D01*
X108990374Y-160471606D01*
X108866215Y-160525510D01*
X108733432Y-160582316D01*
X108596327Y-160640218D01*
X108459202Y-160697407D01*
X108326358Y-160752076D01*
X108202098Y-160802416D01*
X108090725Y-160846620D01*
X107996539Y-160882881D01*
X107923844Y-160909391D01*
X107876941Y-160924342D01*
X107860833Y-160926746D01*
X107840286Y-160907689D01*
X107806933Y-160865964D01*
X107767702Y-160810294D01*
X107764599Y-160805622D01*
X107649423Y-160661736D01*
X107515053Y-160545717D01*
X107365784Y-160458570D01*
X107205913Y-160401301D01*
X107039737Y-160374914D01*
X106871552Y-160380415D01*
X106705655Y-160418810D01*
X106546342Y-160491105D01*
X106511487Y-160512374D01*
X106370737Y-160623004D01*
X106257714Y-160753698D01*
X106173003Y-160899936D01*
X106117194Y-161057192D01*
X106090874Y-161220943D01*
X106094630Y-161386667D01*
X106129050Y-161549838D01*
X106194723Y-161705935D01*
X106292235Y-161850433D01*
X106331813Y-161895131D01*
X106455703Y-162008888D01*
X106586124Y-162091782D01*
X106732315Y-162148644D01*
X106877088Y-162180313D01*
X107039860Y-162188131D01*
X107203440Y-162162062D01*
X107362298Y-162104755D01*
X107510906Y-162018856D01*
X107643735Y-161907014D01*
X107755256Y-161771877D01*
X107767011Y-161754117D01*
X107805508Y-161697850D01*
X107838863Y-161655077D01*
X107860160Y-161634628D01*
X107860833Y-161634331D01*
X107883871Y-161638721D01*
X107936157Y-161656124D01*
X108013390Y-161684732D01*
X108111268Y-161722735D01*
X108225491Y-161768326D01*
X108351758Y-161819697D01*
X108485767Y-161875038D01*
X108623218Y-161932542D01*
X108759808Y-161990399D01*
X108891237Y-162046802D01*
X109013205Y-162099942D01*
X109121409Y-162148010D01*
X109211549Y-162189199D01*
X109279323Y-162221699D01*
X109320430Y-162243703D01*
X109331226Y-162252564D01*
X109322819Y-162279640D01*
X109300272Y-162330303D01*
X109267613Y-162395817D01*
X109248520Y-162431841D01*
X109165800Y-162584832D01*
X109289075Y-162767088D01*
X109352228Y-162860125D01*
X109421727Y-162961985D01*
X109487165Y-163057438D01*
X109520117Y-163105250D01*
X109565273Y-163172495D01*
X109601057Y-163229436D01*
X109622938Y-163268646D01*
X109627563Y-163281381D01*
X109615085Y-163299917D01*
X109580252Y-163340941D01*
X109526678Y-163400475D01*
X109457983Y-163474542D01*
X109377781Y-163559165D01*
X109326286Y-163612685D01*
X109234286Y-163706319D01*
X109151999Y-163787241D01*
X109082945Y-163852177D01*
X109030644Y-163897858D01*
X108998616Y-163921011D01*
X108992116Y-163923232D01*
X108967394Y-163912924D01*
X108917405Y-163884439D01*
X108847212Y-163840937D01*
X108761875Y-163785577D01*
X108666456Y-163721520D01*
X108639854Y-163703303D01*
X108543167Y-163636927D01*
X108456117Y-163577378D01*
X108383595Y-163527984D01*
X108330493Y-163492075D01*
X108301703Y-163472981D01*
X108298726Y-163471136D01*
X108275782Y-163473895D01*
X108225336Y-163488538D01*
X108154041Y-163512513D01*
X108068547Y-163543266D01*
X107975507Y-163578244D01*
X107881574Y-163614893D01*
X107793399Y-163650661D01*
X107717634Y-163682994D01*
X107660931Y-163709338D01*
X107629943Y-163727142D01*
X107628457Y-163728407D01*
X107619601Y-163739294D01*
X107610843Y-163757682D01*
X107601277Y-163787606D01*
X107589996Y-163833103D01*
X107576093Y-163898209D01*
X107558663Y-163986961D01*
X107536798Y-164103393D01*
X107509591Y-164251542D01*
X107503741Y-164283618D01*
X107485374Y-164378686D01*
X107467405Y-164461565D01*
X107451569Y-164524930D01*
X107439600Y-164561458D01*
X107436810Y-164566356D01*
X107412072Y-164574427D01*
X107356790Y-164580987D01*
X107277389Y-164586033D01*
X107180296Y-164589559D01*
X107071938Y-164591561D01*
X106958740Y-164592036D01*
X106847128Y-164590977D01*
X106743529Y-164588382D01*
X106654368Y-164584246D01*
X106586072Y-164578563D01*
X106545066Y-164571331D01*
X106536674Y-164566971D01*
X106528208Y-164542698D01*
X106514435Y-164487426D01*
X106496550Y-164406662D01*
X106475748Y-164305912D01*
X106453223Y-164190683D01*
X106441418Y-164127902D01*
X106419151Y-164008787D01*
X106398979Y-163902565D01*
X106381915Y-163814427D01*
X106368969Y-163749566D01*
X106361155Y-163713174D01*
X106359422Y-163707184D01*
X106339890Y-163697061D01*
X106292843Y-163675662D01*
X106225003Y-163645839D01*
X106143091Y-163610445D01*
X106053828Y-163572332D01*
X105963935Y-163534353D01*
X105880135Y-163499360D01*
X105809147Y-163470206D01*
X105757694Y-163449743D01*
X105732497Y-163440823D01*
X105731396Y-163440657D01*
X105711519Y-163450769D01*
X105665777Y-163479117D01*
X105598717Y-163522723D01*
X105514884Y-163578606D01*
X105418826Y-163643787D01*
X105363650Y-163681679D01*
X105262481Y-163750725D01*
X105170630Y-163812050D01*
X105092744Y-163862663D01*
X105033469Y-163899571D01*
X104997451Y-163919782D01*
X104989377Y-163922701D01*
X104970584Y-163910153D01*
X104930457Y-163875463D01*
X104873493Y-163823063D01*
X104804185Y-163757384D01*
X104727031Y-163682856D01*
X104646525Y-163603913D01*
X104567163Y-163524983D01*
X104493440Y-163450500D01*
X104429852Y-163384894D01*
X104380894Y-163332596D01*
X104351061Y-163298039D01*
X104343942Y-163286478D01*
X104353953Y-163267654D01*
X104382078Y-163222631D01*
X104425454Y-163155787D01*
X104481218Y-163071499D01*
X104546506Y-162974144D01*
X104596246Y-162900707D01*
X104848551Y-162529667D01*
X104593555Y-161911095D01*
X104148931Y-161827275D01*
X103704307Y-161743454D01*
X103704307Y-160818006D01*
X104148931Y-160734186D01*
%TD*%
D12*
%TO.P,MCP23017,28*%
%TO.N,Net-(J6-Pad15)*%
X62230000Y-166370000D03*
%TO.P,MCP23017,14*%
%TO.N,Net-(MCP23017-Pad14)*%
X95250000Y-173990000D03*
%TO.P,MCP23017,27*%
%TO.N,Net-(J6-Pad14)*%
X64770000Y-166370000D03*
%TO.P,MCP23017,13*%
%TO.N,/SDA*%
X92710000Y-173990000D03*
%TO.P,MCP23017,26*%
%TO.N,Net-(J6-Pad13)*%
X67310000Y-166370000D03*
%TO.P,MCP23017,12*%
%TO.N,/SCL*%
X90170000Y-173990000D03*
%TO.P,MCP23017,25*%
%TO.N,Net-(J6-Pad12)*%
X69850000Y-166370000D03*
%TO.P,MCP23017,11*%
%TO.N,Net-(MCP23017-Pad11)*%
X87630000Y-173990000D03*
%TO.P,MCP23017,24*%
%TO.N,Net-(J6-Pad11)*%
X72390000Y-166370000D03*
%TO.P,MCP23017,10*%
%TO.N,/GND*%
X85090000Y-173990000D03*
%TO.P,MCP23017,23*%
%TO.N,Net-(J6-Pad10)*%
X74930000Y-166370000D03*
%TO.P,MCP23017,9*%
%TO.N,/3\u002C3V*%
X82550000Y-173990000D03*
%TO.P,MCP23017,22*%
%TO.N,Net-(J6-Pad9)*%
X77470000Y-166370000D03*
%TO.P,MCP23017,8*%
%TO.N,Net-(J6-Pad7)*%
X80010000Y-173990000D03*
%TO.P,MCP23017,21*%
%TO.N,Net-(J6-Pad8)*%
X80010000Y-166370000D03*
%TO.P,MCP23017,7*%
%TO.N,Net-(J6-Pad6)*%
X77470000Y-173990000D03*
%TO.P,MCP23017,20*%
%TO.N,Net-(MCP23017-Pad20)*%
X82550000Y-166370000D03*
%TO.P,MCP23017,6*%
%TO.N,Net-(J6-Pad5)*%
X74930000Y-173990000D03*
%TO.P,MCP23017,19*%
%TO.N,Net-(MCP23017-Pad19)*%
X85090000Y-166370000D03*
%TO.P,MCP23017,5*%
%TO.N,Net-(J6-Pad4)*%
X72390000Y-173990000D03*
%TO.P,MCP23017,18*%
%TO.N,Net-(MCP23017-Pad18)*%
X87630000Y-166370000D03*
%TO.P,MCP23017,4*%
%TO.N,Net-(J6-Pad3)*%
X69850000Y-173990000D03*
%TO.P,MCP23017,17*%
%TO.N,/GND*%
X90170000Y-166370000D03*
%TO.P,MCP23017,3*%
%TO.N,Net-(J6-Pad2)*%
X67310000Y-173990000D03*
%TO.P,MCP23017,16*%
%TO.N,/GND*%
X92710000Y-166370000D03*
%TO.P,MCP23017,2*%
%TO.N,Net-(J6-Pad1)*%
X64770000Y-173990000D03*
%TO.P,MCP23017,15*%
%TO.N,/GND*%
X95250000Y-166370000D03*
D13*
%TO.P,MCP23017,1*%
%TO.N,Net-(MCP23017-Pad1)*%
X62230000Y-173990000D03*
%TD*%
D14*
%TO.P,R3,2*%
%TO.N,/3\u002C3V*%
X68580000Y-158750000D03*
D15*
%TO.P,R3,1*%
%TO.N,Net-(MCP23017-Pad18)*%
X60960000Y-158750000D03*
%TD*%
D14*
%TO.P,R2,2*%
%TO.N,/3\u002C3V*%
X66040000Y-153670000D03*
D15*
%TO.P,R2,1*%
%TO.N,/SDA*%
X58420000Y-153670000D03*
%TD*%
D14*
%TO.P,R1,2*%
%TO.N,/3\u002C3V*%
X50800000Y-153670000D03*
D15*
%TO.P,R1,1*%
%TO.N,/SDA*%
X43180000Y-153670000D03*
%TD*%
D16*
%TO.P,Taster1,2*%
%TO.N,/GND*%
X92710000Y-144780000D03*
D17*
%TO.P,Taster1,1*%
%TO.N,Net-(MCP23017-Pad1)*%
X87630000Y-144780000D03*
%TD*%
D18*
%TO.P,J6,15*%
%TO.N,Net-(J6-Pad15)*%
X98500000Y-180340000D03*
%TO.P,J6,14*%
%TO.N,Net-(J6-Pad14)*%
X96000000Y-180340000D03*
%TO.P,J6,13*%
%TO.N,Net-(J6-Pad13)*%
X93500000Y-180340000D03*
%TO.P,J6,12*%
%TO.N,Net-(J6-Pad12)*%
X91000000Y-180340000D03*
%TO.P,J6,11*%
%TO.N,Net-(J6-Pad11)*%
X88500000Y-180340000D03*
%TO.P,J6,10*%
%TO.N,Net-(J6-Pad10)*%
X86000000Y-180340000D03*
%TO.P,J6,9*%
%TO.N,Net-(J6-Pad9)*%
X83500000Y-180340000D03*
%TO.P,J6,8*%
%TO.N,Net-(J6-Pad8)*%
X81000000Y-180340000D03*
%TO.P,J6,7*%
%TO.N,Net-(J6-Pad7)*%
X78500000Y-180340000D03*
%TO.P,J6,6*%
%TO.N,Net-(J6-Pad6)*%
X76000000Y-180340000D03*
%TO.P,J6,5*%
%TO.N,Net-(J6-Pad5)*%
X73500000Y-180340000D03*
%TO.P,J6,4*%
%TO.N,Net-(J6-Pad4)*%
X71000000Y-180340000D03*
%TO.P,J6,3*%
%TO.N,Net-(J6-Pad3)*%
X68500000Y-180340000D03*
%TO.P,J6,2*%
%TO.N,Net-(J6-Pad2)*%
X66000000Y-180340000D03*
%TO.P,J6,1*%
%TO.N,Net-(J6-Pad1)*%
%TA.AperFunction,ComponentPad*%
G36*
G01*
X62650000Y-181065000D02*
X62650000Y-179615000D01*
G75*
G02*
X62900000Y-179365000I250000J0D01*
G01*
X64100000Y-179365000D01*
G75*
G02*
X64350000Y-179615000I0J-250000D01*
G01*
X64350000Y-181065000D01*
G75*
G02*
X64100000Y-181315000I-250000J0D01*
G01*
X62900000Y-181315000D01*
G75*
G02*
X62650000Y-181065000I0J250000D01*
G01*
G37*
%TD.AperFunction*%
%TD*%
%TO.P,Spannungsmessung1,3*%
%TO.N,/GND*%
X29130000Y-144780000D03*
%TO.P,Spannungsmessung1,2*%
%TO.N,/5V*%
X26630000Y-144780000D03*
%TO.P,Spannungsmessung1,1*%
%TO.N,/A0*%
%TA.AperFunction,ComponentPad*%
G36*
G01*
X23280000Y-145505000D02*
X23280000Y-144055000D01*
G75*
G02*
X23530000Y-143805000I250000J0D01*
G01*
X24730000Y-143805000D01*
G75*
G02*
X24980000Y-144055000I0J-250000D01*
G01*
X24980000Y-145505000D01*
G75*
G02*
X24730000Y-145755000I-250000J0D01*
G01*
X23530000Y-145755000D01*
G75*
G02*
X23280000Y-145505000I0J250000D01*
G01*
G37*
%TD.AperFunction*%
%TD*%
%TO.P,Display1,4*%
%TO.N,/SCL*%
X31630000Y-152400000D03*
%TO.P,Display1,3*%
%TO.N,/SDA*%
X29130000Y-152400000D03*
%TO.P,Display1,2*%
%TO.N,/5V*%
X26630000Y-152400000D03*
%TO.P,Display1,1*%
%TO.N,/GND*%
%TA.AperFunction,ComponentPad*%
G36*
G01*
X23280000Y-153125000D02*
X23280000Y-151675000D01*
G75*
G02*
X23530000Y-151425000I250000J0D01*
G01*
X24730000Y-151425000D01*
G75*
G02*
X24980000Y-151675000I0J-250000D01*
G01*
X24980000Y-153125000D01*
G75*
G02*
X24730000Y-153375000I-250000J0D01*
G01*
X23530000Y-153375000D01*
G75*
G02*
X23280000Y-153125000I0J250000D01*
G01*
G37*
%TD.AperFunction*%
%TD*%
D16*
%TO.P,Kuehlen1,3*%
%TO.N,/3\u002C3V*%
X81280000Y-144780000D03*
%TO.P,Kuehlen1,2*%
%TO.N,/GND*%
X76200000Y-144780000D03*
D17*
%TO.P,Kuehlen1,1*%
%TO.N,/D3*%
X71120000Y-144780000D03*
%TD*%
D16*
%TO.P,Spuelen1,3*%
%TO.N,/3\u002C3V*%
X64770000Y-144780000D03*
%TO.P,Spuelen1,2*%
%TO.N,/GND*%
X59690000Y-144780000D03*
D17*
%TO.P,Spuelen1,1*%
%TO.N,/D4*%
X54610000Y-144780000D03*
%TD*%
D16*
%TO.P,MilchTemp1,3*%
%TO.N,/3\u002C3V*%
X48260000Y-144780000D03*
%TO.P,MilchTemp1,2*%
%TO.N,/SDA*%
X43180000Y-144780000D03*
D17*
%TO.P,MilchTemp1,1*%
%TO.N,/GND*%
X38100000Y-144780000D03*
%TD*%
D19*
%TO.P,Piezo1,2*%
%TO.N,/GND*%
X92690000Y-157480000D03*
D20*
%TO.P,Piezo1,1*%
%TO.N,Net-(Piezo1-Pad1)*%
X85090000Y-157480000D03*
%TD*%
D21*
%TO.P,DS18B20,1*%
%TO.N,/GND*%
X74930000Y-156210000D03*
D22*
%TO.P,DS18B20,3*%
%TO.N,/3\u002C3V*%
X77470000Y-156210000D03*
%TO.P,DS18B20,2*%
%TO.N,/SDA*%
X76200000Y-156210000D03*
%TD*%
D23*
%TO.P,WeMosD1Mini1,16*%
%TO.N,Net-(WeMosD1Mini1-Pad16)*%
X48260000Y-181610000D03*
%TO.P,WeMosD1Mini1,15*%
%TO.N,Net-(WeMosD1Mini1-Pad15)*%
X45720000Y-181610000D03*
%TO.P,WeMosD1Mini1,14*%
%TO.N,/SCL*%
X43180000Y-181610000D03*
%TO.P,WeMosD1Mini1,13*%
%TO.N,/SDA*%
X40640000Y-181610000D03*
%TO.P,WeMosD1Mini1,12*%
%TO.N,/D3*%
X38100000Y-181610000D03*
%TO.P,WeMosD1Mini1,11*%
%TO.N,/D4*%
X35560000Y-181610000D03*
%TO.P,WeMosD1Mini1,10*%
%TO.N,/GND*%
X33020000Y-181610000D03*
%TO.P,WeMosD1Mini1,9*%
%TO.N,/5V*%
X30480000Y-181610000D03*
%TO.P,WeMosD1Mini1,8*%
%TO.N,/3\u002C3V*%
X30480000Y-158750000D03*
%TO.P,WeMosD1Mini1,7*%
%TO.N,Net-(WeMosD1Mini1-Pad7)*%
X33020000Y-158750000D03*
%TO.P,WeMosD1Mini1,6*%
%TO.N,Net-(WeMosD1Mini1-Pad6)*%
X35560000Y-158750000D03*
%TO.P,WeMosD1Mini1,5*%
%TO.N,Net-(WeMosD1Mini1-Pad5)*%
X38100000Y-158750000D03*
%TO.P,WeMosD1Mini1,4*%
%TO.N,Net-(WeMosD1Mini1-Pad4)*%
X40640000Y-158750000D03*
%TO.P,WeMosD1Mini1,3*%
%TO.N,Net-(Piezo1-Pad1)*%
X43180000Y-158750000D03*
D20*
%TO.P,WeMosD1Mini1,1*%
%TO.N,Net-(WeMosD1Mini1-Pad1)*%
X48260000Y-158750000D03*
D23*
%TO.P,WeMosD1Mini1,2*%
%TO.N,/A0*%
X45720000Y-158750000D03*
%TD*%
D24*
%TO.N,*%
X17780000Y-189230000D03*
X107950000Y-189230000D03*
X17780000Y-134620000D03*
X107950000Y-134620000D03*
D25*
X107950000Y-134620000D03*
X107950000Y-189230000D03*
X17780000Y-189230000D03*
X17780000Y-134620000D03*
D26*
%TO.N,/SCL*%
X35560000Y-156210000D03*
X29229990Y-172739990D03*
%TD*%
D27*
%TO.N,/SCL*%
X31750000Y-152400000D02*
X35560000Y-156210000D01*
X31630000Y-152400000D02*
X31750000Y-152400000D01*
X42607781Y-181610000D02*
X43180000Y-181610000D01*
X33737771Y-172739990D02*
X42607781Y-181610000D01*
X29229990Y-172739990D02*
X33737771Y-172739990D01*
%TO.N,/SDA*%
X43180000Y-144780000D02*
X43180000Y-153670000D01*
X45990002Y-153670000D02*
X43180000Y-153670000D01*
X49710001Y-157389999D02*
X45990002Y-153670000D01*
X49710001Y-160110001D02*
X49710001Y-157389999D01*
X49620001Y-160200001D02*
X49710001Y-160110001D01*
X42662220Y-160200001D02*
X49620001Y-160200001D01*
X41929990Y-159467771D02*
X42662220Y-160200001D01*
X41929990Y-158032229D02*
X41929990Y-159467771D01*
X34872751Y-150974990D02*
X41929990Y-158032229D01*
X30555010Y-150974990D02*
X34872751Y-150974990D01*
X29130000Y-152400000D02*
X30555010Y-150974990D01*
X29130000Y-159367781D02*
X29130000Y-152400000D01*
X31362240Y-161600021D02*
X29130000Y-159367781D01*
X50489979Y-161600021D02*
X31362240Y-161600021D01*
X58420000Y-153670000D02*
X50489979Y-161600021D01*
%TO.N,/GND*%
X74930000Y-146050000D02*
X74930000Y-156210000D01*
X76200000Y-144780000D02*
X74930000Y-146050000D01*
X75796138Y-157410010D02*
X82439989Y-157410010D01*
X74930000Y-156543872D02*
X75796138Y-157410010D01*
X74930000Y-156210000D02*
X74930000Y-156543872D01*
X82439989Y-157410010D02*
X82509979Y-157480000D01*
X91239999Y-156029999D02*
X92690000Y-157480000D01*
X83729999Y-156029999D02*
X91239999Y-156029999D01*
X82509979Y-157250019D02*
X83729999Y-156029999D01*
X82509979Y-157480000D02*
X82509979Y-157250019D01*
%TO.N,/5V*%
X26630000Y-179060000D02*
X26630000Y-152400000D01*
X29180000Y-181610000D02*
X26630000Y-179060000D01*
X30480000Y-181610000D02*
X29180000Y-181610000D01*
X26630000Y-152400000D02*
X26630000Y-144780000D01*
%TO.N,/3\u002C3V*%
X50800000Y-147320000D02*
X48260000Y-144780000D01*
X50800000Y-153670000D02*
X50800000Y-147320000D01*
X49909954Y-160900011D02*
X32630011Y-160900011D01*
X50800000Y-160009965D02*
X49909954Y-160900011D01*
X32630011Y-160900011D02*
X30480000Y-158750000D01*
X50800000Y-153670000D02*
X50800000Y-160009965D01*
X62230000Y-147320000D02*
X64770000Y-144780000D01*
X50800000Y-147320000D02*
X62230000Y-147320000D01*
X66040000Y-146050000D02*
X64770000Y-144780000D01*
X66040000Y-153670000D02*
X66040000Y-146050000D01*
X66720001Y-142829999D02*
X64770000Y-144780000D01*
X79329999Y-142829999D02*
X66720001Y-142829999D01*
X81280000Y-144780000D02*
X79329999Y-142829999D01*
%TO.N,/A0*%
X30324990Y-143354990D02*
X45720000Y-158750000D01*
X26091519Y-143354990D02*
X30324990Y-143354990D01*
X24130000Y-145316509D02*
X26091519Y-143354990D01*
X24130000Y-144780000D02*
X24130000Y-145316509D01*
%TO.N,Net-(J6-Pad15)*%
X67680061Y-160919939D02*
X62230000Y-166370000D01*
X92639904Y-160919939D02*
X67680061Y-160919939D01*
X97200011Y-165480046D02*
X92639904Y-160919939D01*
X97200011Y-179040011D02*
X97200011Y-165480046D01*
X98500000Y-180340000D02*
X97200011Y-179040011D01*
%TO.N,Net-(J6-Pad14)*%
X69520051Y-161619949D02*
X64770000Y-166370000D01*
X92349951Y-161619949D02*
X69520051Y-161619949D01*
X96500001Y-178364999D02*
X96500001Y-165769999D01*
X96500001Y-165769999D02*
X92349951Y-161619949D01*
X96000000Y-178865000D02*
X96500001Y-178364999D01*
X96000000Y-180340000D02*
X96000000Y-178865000D01*
%TO.N,Net-(J6-Pad13)*%
X71360041Y-162319959D02*
X67310000Y-166370000D01*
X90509961Y-162319959D02*
X71360041Y-162319959D01*
X93960001Y-165769999D02*
X90509961Y-162319959D01*
X93960001Y-178404999D02*
X93960001Y-165769999D01*
X93500000Y-178865000D02*
X93960001Y-178404999D01*
X93500000Y-180340000D02*
X93500000Y-178865000D01*
%TO.N,Net-(J6-Pad12)*%
X73200031Y-163019969D02*
X69850000Y-166370000D01*
X88669971Y-163019969D02*
X73200031Y-163019969D01*
X91420001Y-165769999D02*
X88669971Y-163019969D01*
X91420001Y-178444999D02*
X91420001Y-165769999D01*
X91000000Y-178865000D02*
X91420001Y-178444999D01*
X91000000Y-180340000D02*
X91000000Y-178865000D01*
%TO.N,Net-(J6-Pad11)*%
X75040021Y-163719979D02*
X72390000Y-166370000D01*
X86829981Y-163719979D02*
X75040021Y-163719979D01*
X88880001Y-165769999D02*
X86829981Y-163719979D01*
X88880001Y-178484999D02*
X88880001Y-165769999D01*
X88500000Y-178865000D02*
X88880001Y-178484999D01*
X88500000Y-180340000D02*
X88500000Y-178865000D01*
%TO.N,Net-(J6-Pad10)*%
X76880011Y-164419989D02*
X74930000Y-166370000D01*
X84989991Y-164419989D02*
X76880011Y-164419989D01*
X86340001Y-165769999D02*
X84989991Y-164419989D01*
X86340001Y-179999999D02*
X86340001Y-165769999D01*
X86000000Y-180340000D02*
X86340001Y-179999999D01*
%TO.N,Net-(J6-Pad9)*%
X78720001Y-165119999D02*
X77470000Y-166370000D01*
X83150001Y-165119999D02*
X78720001Y-165119999D01*
X83800001Y-165769999D02*
X83150001Y-165119999D01*
X83800001Y-180039999D02*
X83800001Y-165769999D01*
X83500000Y-180340000D02*
X83800001Y-180039999D01*
%TO.N,Net-(J6-Pad8)*%
X81260001Y-167620001D02*
X80010000Y-166370000D01*
X81260001Y-180079999D02*
X81260001Y-167620001D01*
X81000000Y-180340000D02*
X81260001Y-180079999D01*
%TO.N,Net-(J6-Pad7)*%
X78500000Y-180340000D02*
X78500000Y-176770000D01*
X80010000Y-175260000D02*
X80010000Y-173990000D01*
X78500000Y-176770000D02*
X80010000Y-175260000D01*
%TO.N,Net-(J6-Pad6)*%
X76000000Y-180340000D02*
X76000000Y-176730000D01*
X77470000Y-175260000D02*
X77470000Y-173990000D01*
X76000000Y-176730000D02*
X77470000Y-175260000D01*
%TO.N,Net-(J6-Pad5)*%
X73500000Y-180340000D02*
X73500000Y-176690000D01*
X74930000Y-175260000D02*
X74930000Y-173990000D01*
X73500000Y-176690000D02*
X74930000Y-175260000D01*
%TO.N,Net-(J6-Pad4)*%
X71000000Y-180340000D02*
X71000000Y-176650000D01*
X71000000Y-176650000D02*
X72390000Y-175260000D01*
X72390000Y-175260000D02*
X72390000Y-173990000D01*
%TO.N,Net-(J6-Pad3)*%
X68500000Y-180340000D02*
X68500000Y-176610000D01*
X69850000Y-175260000D02*
X69850000Y-173990000D01*
X68500000Y-176610000D02*
X69850000Y-175260000D01*
%TO.N,Net-(J6-Pad2)*%
X66000000Y-180340000D02*
X66000000Y-176570000D01*
X67310000Y-175260000D02*
X67310000Y-173990000D01*
X66000000Y-176570000D02*
X67310000Y-175260000D01*
%TO.N,Net-(J6-Pad1)*%
X63500000Y-180340000D02*
X63500000Y-176530000D01*
X64770000Y-175260000D02*
X64770000Y-173990000D01*
X63500000Y-176530000D02*
X64770000Y-175260000D01*
%TO.N,Net-(MCP23017-Pad1)*%
X97790000Y-154940000D02*
X87630000Y-144780000D01*
X100330000Y-181610000D02*
X100330000Y-176530000D01*
X59690000Y-182880000D02*
X60960000Y-184150000D01*
X99060000Y-175260000D02*
X99060000Y-154940000D01*
X100330000Y-176530000D02*
X99060000Y-175260000D01*
X60960000Y-177800000D02*
X59690000Y-179070000D01*
X59690000Y-179070000D02*
X59690000Y-182880000D01*
X62169980Y-177800000D02*
X60960000Y-177800000D01*
X60960000Y-184150000D02*
X97790000Y-184150000D01*
X62199990Y-177830010D02*
X62169980Y-177800000D01*
X97790000Y-184150000D02*
X100330000Y-181610000D01*
X62199990Y-174020010D02*
X62199990Y-177830010D01*
X62230000Y-173990000D02*
X62199990Y-174020010D01*
X97790000Y-154940000D02*
X99060000Y-154940000D01*
%TD*%
M02*
