%TF.GenerationSoftware,KiCad,Pcbnew,(5.1.7)-1*%
%TF.CreationDate,2021-05-08T17:47:48+02:00*%
%TF.ProjectId,tankwaechter,74616e6b-7761-4656-9368-7465722e6b69,rev?*%
%TF.SameCoordinates,Original*%
%TF.FileFunction,Soldermask,Bot*%
%TF.FilePolarity,Negative*%
%FSLAX46Y46*%
G04 Gerber Fmt 4.6, Leading zero omitted, Abs format (unit mm)*
G04 Created by KiCad (PCBNEW (5.1.7)-1) date 2021-05-08 17:47:48*
%MOMM*%
%LPD*%
G01*
G04 APERTURE LIST*
%ADD10O,1.600000X1.600000*%
%ADD11R,1.600000X1.600000*%
%ADD12O,1.400000X1.400000*%
%ADD13C,1.400000*%
%ADD14C,3.000000*%
%ADD15R,3.000000X3.000000*%
%ADD16O,1.700000X1.950000*%
%ADD17C,2.000000*%
%ADD18R,2.000000X2.000000*%
%ADD19R,1.050000X1.500000*%
%ADD20O,1.050000X1.500000*%
%ADD21O,1.600000X2.000000*%
G04 APERTURE END LIST*
D10*
%TO.C,MCP23017*%
X62230000Y-166370000D03*
X95250000Y-173990000D03*
X64770000Y-166370000D03*
X92710000Y-173990000D03*
X67310000Y-166370000D03*
X90170000Y-173990000D03*
X69850000Y-166370000D03*
X87630000Y-173990000D03*
X72390000Y-166370000D03*
X85090000Y-173990000D03*
X74930000Y-166370000D03*
X82550000Y-173990000D03*
X77470000Y-166370000D03*
X80010000Y-173990000D03*
X80010000Y-166370000D03*
X77470000Y-173990000D03*
X82550000Y-166370000D03*
X74930000Y-173990000D03*
X85090000Y-166370000D03*
X72390000Y-173990000D03*
X87630000Y-166370000D03*
X69850000Y-173990000D03*
X90170000Y-166370000D03*
X67310000Y-173990000D03*
X92710000Y-166370000D03*
X64770000Y-173990000D03*
X95250000Y-166370000D03*
D11*
X62230000Y-173990000D03*
%TD*%
D12*
%TO.C,R3*%
X68580000Y-158750000D03*
D13*
X60960000Y-158750000D03*
%TD*%
D12*
%TO.C,R2*%
X66040000Y-153670000D03*
D13*
X58420000Y-153670000D03*
%TD*%
D12*
%TO.C,R1*%
X50800000Y-153670000D03*
D13*
X43180000Y-153670000D03*
%TD*%
D14*
%TO.C,Taster1*%
X92710000Y-144780000D03*
D15*
X87630000Y-144780000D03*
%TD*%
D16*
%TO.C,J6*%
X98500000Y-180340000D03*
X96000000Y-180340000D03*
X93500000Y-180340000D03*
X91000000Y-180340000D03*
X88500000Y-180340000D03*
X86000000Y-180340000D03*
X83500000Y-180340000D03*
X81000000Y-180340000D03*
X78500000Y-180340000D03*
X76000000Y-180340000D03*
X73500000Y-180340000D03*
X71000000Y-180340000D03*
X68500000Y-180340000D03*
X66000000Y-180340000D03*
G36*
G01*
X62650000Y-181065000D02*
X62650000Y-179615000D01*
G75*
G02*
X62900000Y-179365000I250000J0D01*
G01*
X64100000Y-179365000D01*
G75*
G02*
X64350000Y-179615000I0J-250000D01*
G01*
X64350000Y-181065000D01*
G75*
G02*
X64100000Y-181315000I-250000J0D01*
G01*
X62900000Y-181315000D01*
G75*
G02*
X62650000Y-181065000I0J250000D01*
G01*
G37*
%TD*%
%TO.C,Spannungsmessung1*%
X29130000Y-144780000D03*
X26630000Y-144780000D03*
G36*
G01*
X23280000Y-145505000D02*
X23280000Y-144055000D01*
G75*
G02*
X23530000Y-143805000I250000J0D01*
G01*
X24730000Y-143805000D01*
G75*
G02*
X24980000Y-144055000I0J-250000D01*
G01*
X24980000Y-145505000D01*
G75*
G02*
X24730000Y-145755000I-250000J0D01*
G01*
X23530000Y-145755000D01*
G75*
G02*
X23280000Y-145505000I0J250000D01*
G01*
G37*
%TD*%
%TO.C,Display1*%
X31630000Y-152400000D03*
X29130000Y-152400000D03*
X26630000Y-152400000D03*
G36*
G01*
X23280000Y-153125000D02*
X23280000Y-151675000D01*
G75*
G02*
X23530000Y-151425000I250000J0D01*
G01*
X24730000Y-151425000D01*
G75*
G02*
X24980000Y-151675000I0J-250000D01*
G01*
X24980000Y-153125000D01*
G75*
G02*
X24730000Y-153375000I-250000J0D01*
G01*
X23530000Y-153375000D01*
G75*
G02*
X23280000Y-153125000I0J250000D01*
G01*
G37*
%TD*%
D14*
%TO.C,Kuehlen1*%
X81280000Y-144780000D03*
X76200000Y-144780000D03*
D15*
X71120000Y-144780000D03*
%TD*%
D14*
%TO.C,Spuelen1*%
X64770000Y-144780000D03*
X59690000Y-144780000D03*
D15*
X54610000Y-144780000D03*
%TD*%
D14*
%TO.C,MilchTemp1*%
X48260000Y-144780000D03*
X43180000Y-144780000D03*
D15*
X38100000Y-144780000D03*
%TD*%
D17*
%TO.C,Piezo1*%
X92690000Y-157480000D03*
D18*
X85090000Y-157480000D03*
%TD*%
D19*
%TO.C,DS18B20*%
X74930000Y-156210000D03*
D20*
X77470000Y-156210000D03*
X76200000Y-156210000D03*
%TD*%
D21*
%TO.C,WeMosD1Mini1*%
X48260000Y-181610000D03*
X45720000Y-181610000D03*
X43180000Y-181610000D03*
X40640000Y-181610000D03*
X38100000Y-181610000D03*
X35560000Y-181610000D03*
X33020000Y-181610000D03*
X30480000Y-181610000D03*
X30480000Y-158750000D03*
X33020000Y-158750000D03*
X35560000Y-158750000D03*
X38100000Y-158750000D03*
X40640000Y-158750000D03*
X43180000Y-158750000D03*
D18*
X48260000Y-158750000D03*
D21*
X45720000Y-158750000D03*
%TD*%
M02*
